<svg width="120" height="43" viewBox="0 0 120 43" fill="none" xmlns="http://www.w3.org/2000/svg">
<g clip-path="url(#clip0_59_198)">
<path d="M113.571 -2.38867H6.4285C3.17397 -2.38867 0.535645 0.0737619 0.535645 3.11133V31.1113C0.535645 34.1489 3.17397 36.6113 6.4285 36.6113H113.571C116.826 36.6113 119.464 34.1489 119.464 31.1113V3.11133C119.464 0.0737619 116.826 -2.38867 113.571 -2.38867Z" fill="black"/>
<path d="M113.571 -2.38867H6.4285C3.17397 -2.38867 0.535645 0.0737619 0.535645 3.11133V31.1113C0.535645 34.1489 3.17397 36.6113 6.4285 36.6113H113.571C116.826 36.6113 119.464 34.1489 119.464 31.1113V3.11133C119.464 0.0737619 116.826 -2.38867 113.571 -2.38867Z" stroke="#A6A6A6"/>
<path d="M47.9978 23.8263C49.9371 23.3593 51.2164 21.9623 51.2164 20.1363C51.2164 17.8773 49.2921 16.2893 46.5931 16.2893H41.7856V28.4453H44.0035V23.9763H45.5774L49.0178 28.4453H51.6235L47.9978 23.8223V23.8263ZM46.5942 18.1863C47.9817 18.1863 48.9406 18.9803 48.9406 20.1363C48.9406 21.2923 47.9817 22.0863 46.5942 22.0863H44.0035V18.1913H46.5921L46.5942 18.1863ZM56.6185 28.6183C57.1935 28.618 57.7584 28.478 58.2578 28.212C58.7571 27.946 59.1737 27.5632 59.4664 27.1013L59.8896 28.4453H61.4796V19.4773H59.3539V24.6693C59.3539 25.9453 58.4464 26.8413 57.2078 26.8413C55.9692 26.8413 55.1389 25.9453 55.1389 24.6693V19.4773H53.0121V24.8913C53.0121 27.0483 54.5656 28.6183 56.6185 28.6183ZM68.2671 28.6173C70.7281 28.6173 72.7606 27.3073 72.7606 25.1353C72.7606 22.7033 70.6349 21.9953 68.8039 21.4083C67.3789 20.9603 66.1414 20.5463 66.1414 19.4583C66.1414 18.5093 67.0853 18.0083 68.1942 18.0083C69.3599 18.0083 70.1914 18.5773 70.6553 19.5443L72.7649 19.2173C72.0996 17.3193 70.4174 16.1113 68.1214 16.1113C65.8253 16.1113 63.8699 17.3873 63.8699 19.5593C63.8699 22.0103 65.9956 22.6803 67.8267 23.2493C69.2303 23.6793 70.4881 24.0923 70.4881 25.1993C70.4881 26.1673 69.5453 26.7163 68.2864 26.7163C66.8421 26.7163 66.0685 26.0803 65.3828 24.9243L63.2367 25.2713C63.8656 27.3223 65.8628 28.6173 68.2671 28.6173ZM78.5431 26.7213C77.821 26.7213 77.4706 26.3933 77.4706 25.7203V21.2013H80.3389V19.4773H77.4706V16.8913H75.8817L75.3449 19.4783H73.771V21.2023H75.3449V25.7203C75.3449 27.4783 76.4335 28.4453 78.5431 28.4453H80.3378L80.5242 26.7213H78.5431ZM86.5992 28.6183C89.6121 28.6183 91.7378 26.6873 91.7378 23.9613C91.7378 21.2353 89.6121 19.3043 86.5992 19.3043C83.5864 19.3043 81.4596 21.2363 81.4596 23.9613C81.4596 26.6863 83.5853 28.6183 86.5992 28.6183ZM86.5992 26.8083C84.8603 26.8083 83.6785 25.6523 83.6785 23.9613C83.6785 22.2713 84.8603 21.1153 86.5992 21.1153C88.3381 21.1153 89.5189 22.2713 89.5189 23.9613C89.5189 25.6513 88.3371 26.8073 86.5992 26.8073M95.7149 28.4453V23.1513C95.7149 22.0143 96.3074 21.3743 97.6017 21.3743H98.8242L98.6389 19.4763H98.2317C97.1024 19.4763 96.2346 19.7703 95.5853 20.7713L95.1781 19.4763H93.5892V28.4443L95.7149 28.4453ZM109.286 23.8593C109.286 21.2723 107.217 19.3073 104.293 19.3073C101.369 19.3073 99.2989 21.2573 99.2989 23.9643C99.2989 26.6713 101.368 28.6213 104.292 28.6213C106.289 28.6213 108.177 27.7413 108.895 26.0353L106.897 25.7223C106.434 26.3623 105.547 26.8103 104.421 26.8103C102.796 26.8103 101.722 25.8803 101.518 24.4993H109.245C109.269 24.2868 109.281 24.0731 109.281 23.8593M104.288 21.0313C105.619 21.0313 106.62 21.8263 106.97 22.9443H101.645C101.997 21.7883 102.997 21.0323 104.292 21.0323" fill="white"/>
<path d="M10.3799 27.4253C12.1884 29.1113 15.0963 29.1113 20.9152 29.1113H21.9416C27.7606 29.1113 30.6684 29.1113 32.477 27.4253C34.2856 25.7393 34.2856 23.0233 34.2856 17.5913V16.6313C34.2856 11.1993 34.2856 8.48333 32.477 6.79733C30.6684 5.11133 27.7563 5.11133 21.9416 5.11133H20.9152C15.0963 5.11133 12.1841 5.11133 10.3799 6.79733C8.57129 8.48733 8.57129 11.2033 8.57129 16.6313V17.5913C8.57129 23.0233 8.57129 25.7393 10.3799 27.4253Z" fill="#0077FF"/>
<path fill-rule="evenodd" clip-rule="evenodd" d="M28.4226 21.0645L26.6869 20.6595C26.5848 20.6324 26.4944 20.5758 26.4288 20.4978C26.3632 20.4199 26.3256 20.3246 26.3216 20.2255L26.1041 14.2565C26.0398 13.4665 25.4151 12.8365 24.7573 12.6535C24.7395 12.6475 24.72 12.6476 24.7023 12.6539C24.6847 12.6601 24.6699 12.672 24.6609 12.6875C24.6362 12.7175 24.6491 12.7575 24.6769 12.7805C24.8376 12.8965 25.2866 13.2795 25.2866 13.9385V21.7425C25.2866 22.4955 24.5205 23.0495 23.7341 22.8665L21.9694 22.4545C21.8723 22.4242 21.7878 22.3664 21.7275 22.2891C21.6672 22.2119 21.6342 22.1191 21.633 22.0235L21.4166 16.0555C21.3523 15.2655 20.7266 14.6355 20.0687 14.4515C20.0509 14.4455 20.0314 14.4456 20.0138 14.4519C19.9961 14.4581 19.9814 14.47 19.9723 14.4855C19.9487 14.5155 19.9616 14.5565 19.9884 14.5795C20.1491 14.6955 20.5991 15.0775 20.5991 15.7365V23.5405C20.5991 24.2935 19.8362 24.8485 19.0509 24.6645L14.0687 23.5035C13.7326 23.4255 13.434 23.2448 13.2204 22.9902C13.0069 22.7357 12.8906 22.4218 12.8901 22.0985V14.2835C12.8901 13.5305 13.6519 12.9755 14.4384 13.1595L17.5776 13.8895V12.4815C17.5776 11.7285 18.3405 11.1735 19.1269 11.3575L22.2662 12.0875V10.6795C22.2662 9.9265 23.0291 9.3715 23.8144 9.5555L28.7955 10.7165C29.1316 10.7945 29.4302 10.9752 29.6438 11.2298C29.8573 11.4843 29.9736 11.7982 29.9741 12.1215V19.9365C29.9741 20.6895 29.2134 21.2445 28.4269 21.0605" fill="white"/>
<path d="M44.9784 11.4143C44.3684 11.4143 43.8209 11.2823 43.3359 11.0183C42.8514 10.7502 42.4555 10.3627 42.1916 9.89833C41.9163 9.40104 41.7768 8.84801 41.7855 8.28833C41.7855 7.69233 41.9209 7.15866 42.1916 6.68733C42.4517 6.22595 42.8447 5.84152 43.3263 5.57733C43.8237 5.30448 44.3918 5.16438 44.9688 5.17233C45.6273 5.17233 46.2116 5.32733 46.7216 5.63733C47.238 5.94133 47.607 6.35466 47.8284 6.87733L46.8877 7.01433C46.7202 6.69752 46.4529 6.43614 46.1216 6.26533C45.7809 6.07862 45.3916 5.98345 44.9966 5.99033C44.5659 5.99033 44.1813 6.08766 43.8427 6.28233C43.5105 6.47766 43.2491 6.75033 43.0584 7.10033C42.8741 7.445 42.782 7.84133 42.782 8.28933C42.782 8.74266 42.8741 9.14433 43.0584 9.49433C43.2491 9.83899 43.5134 10.109 43.8513 10.3043C44.1905 10.499 44.5784 10.5963 45.0148 10.5963C45.4448 10.5963 45.8259 10.5047 46.158 10.3213C46.4966 10.1313 46.7552 9.86699 46.9338 9.52833L47.8745 9.66633C47.6485 10.192 47.2512 10.638 46.7388 10.9413C46.2143 11.2574 45.6026 11.4219 44.9784 11.4143ZM52.787 11.3283H51.5977L49.8352 9.48533H49.5491V11.3283H48.6448V6.87633H49.5491V8.67633H49.8255L51.5141 6.87633H52.6027L50.5552 9.02933L52.787 11.3283ZM55.0284 6.79133C55.6198 6.79133 56.0841 6.97199 56.4213 7.33333C56.7663 7.68933 56.9388 8.18866 56.9388 8.83133V11.3283H56.2927L56.0805 10.6313C55.927 10.8547 55.7209 11.0413 55.4623 11.1913C55.1808 11.3472 54.8573 11.4246 54.5302 11.4143C54.233 11.4205 53.9387 11.3587 53.673 11.2343C53.4306 11.1217 53.2263 10.9486 53.0827 10.7343C52.9412 10.5132 52.8678 10.2599 52.8705 10.0023C52.8705 9.58233 53.0491 9.24633 53.4063 8.99433C53.762 8.74233 54.2784 8.61633 54.9555 8.61633H56.0345C56.0102 8.26633 55.9055 7.99633 55.7205 7.80633C55.5363 7.61099 55.2905 7.51333 54.9834 7.51333C54.7498 7.51333 54.5438 7.565 54.3652 7.66833C54.1923 7.76599 54.0515 7.90608 53.958 8.07333L53.1191 7.94433C53.2389 7.59217 53.4913 7.29238 53.8295 7.10033C54.1795 6.89366 54.5795 6.79033 55.0295 6.79033M54.7252 10.6983C55.113 10.6983 55.427 10.5807 55.667 10.3453C55.9134 10.1053 56.0363 9.77533 56.0355 9.35533V9.30333H54.9845C54.1845 9.30333 53.7845 9.52733 53.7845 9.97533C53.7845 10.1933 53.8705 10.3683 54.0427 10.5003C54.2148 10.6323 54.4423 10.6983 54.7252 10.6983ZM60.5752 9.70933C60.4073 9.77884 60.2305 9.82791 60.0491 9.85533C59.8455 9.89 59.6455 9.90733 59.4491 9.90733C58.8777 9.90733 58.438 9.75799 58.1302 9.45933C57.823 9.16133 57.6695 8.73966 57.6695 8.19433V6.87633H58.5727V8.19433C58.5727 8.831 58.9016 9.14933 59.5595 9.14933C59.9595 9.14933 60.2977 9.08333 60.5741 8.95133V6.87633H61.4784V11.3283H60.5741L60.5752 9.70933ZM64.5116 6.79133C65.1023 6.79133 65.5666 6.97199 65.9045 7.33333C66.2488 7.68933 66.4209 8.18866 66.4209 8.83133V11.3283H65.7759L65.5638 10.6313C65.4095 10.8547 65.2034 11.0413 64.9455 11.1913C64.664 11.3472 64.3406 11.4246 64.0134 11.4143C63.7162 11.4205 63.422 11.3587 63.1563 11.2343C62.9134 11.1218 62.7087 10.9488 62.5648 10.7343C62.4233 10.5132 62.3499 10.2599 62.3527 10.0023C62.3527 9.58233 62.5313 9.24633 62.8884 8.99433C63.2455 8.74233 63.762 8.61633 64.4377 8.61633H65.5177C65.4934 8.26633 65.3888 7.99633 65.2038 7.80633C65.0195 7.61099 64.7734 7.51333 64.4655 7.51333C64.232 7.51333 64.0259 7.565 63.8473 7.66833C63.6748 7.76613 63.5344 7.90621 63.4413 8.07333L62.6023 7.94433C62.7222 7.59217 62.9745 7.29238 63.3127 7.10033C63.6627 6.89366 64.0627 6.79033 64.5127 6.79033M64.2084 10.6983C64.5963 10.6983 64.9098 10.5807 65.1491 10.3453C65.3955 10.1053 65.5188 9.77533 65.5188 9.35533V9.30333H64.4666C63.6666 9.30333 63.2666 9.52733 63.2666 9.97533C63.2666 10.1933 63.353 10.3683 63.5259 10.5003C63.6973 10.6323 63.9248 10.6983 64.2084 10.6983ZM68.8573 11.3283H67.5213V6.87633H68.3977V10.3813H68.5359L70.4645 6.87633H71.8016V11.3283H70.9252V7.83133H70.7859L68.8573 11.3283ZM69.6695 6.29933C69.2695 6.29933 68.9341 6.20166 68.6634 6.00633C68.3991 5.80633 68.2423 5.50799 68.193 5.11133H68.9313C68.962 5.29533 69.0388 5.43599 69.1616 5.53333C69.3097 5.63079 69.4885 5.67936 69.6695 5.67133C69.878 5.67133 70.0441 5.62533 70.1677 5.53333C70.3013 5.42666 70.3841 5.2749 70.398 5.11133H71.1459C71.0902 5.50733 70.927 5.80599 70.6563 6.00733C70.392 6.20199 70.063 6.29933 69.6695 6.29933ZM75.0363 11.3283H74.132V7.65133H72.4798V6.87633H76.6873V7.65133H75.0363V11.3283ZM81.813 9.07233C81.813 9.18766 81.8095 9.27666 81.8023 9.33933H77.8638C77.913 9.73533 78.0791 10.051 78.362 10.2863C78.6448 10.5217 79.0048 10.6393 79.442 10.6393C79.742 10.6393 80.0095 10.5847 80.2445 10.4753C80.4845 10.3607 80.6659 10.2117 80.7888 10.0283L81.6373 10.1573C81.453 10.5593 81.1548 10.8693 80.7427 11.0873C80.3296 11.3067 79.8615 11.4196 79.3863 11.4143C78.942 11.4209 78.5034 11.32 78.1134 11.1213C77.7384 10.9213 77.4463 10.646 77.237 10.2953C77.0239 9.931 76.9158 9.52133 76.923 9.10633C76.923 8.65966 77.0277 8.26099 77.237 7.91033C77.4463 7.55966 77.7355 7.28699 78.1048 7.09233C78.4734 6.89099 78.8945 6.79033 79.368 6.79033C79.8352 6.79033 80.253 6.89099 80.6216 7.09233C80.9973 7.28699 81.2898 7.55966 81.4991 7.91033C81.7084 8.25433 81.813 8.64166 81.813 9.07233ZM79.368 7.53933C79.0045 7.53933 78.6905 7.63999 78.4263 7.84133C78.1691 8.04133 77.997 8.31099 77.9098 8.65033H80.8252C80.7562 8.33635 80.5739 8.05396 80.3088 7.85033C80.047 7.64213 79.7119 7.53071 79.368 7.53933ZM85.877 11.3283H84.5388V6.87633H85.4152V10.3813H85.5545L87.482 6.87633H88.8191V11.3283H87.9438V7.83133H87.8045L85.877 11.3283ZM92.5713 9.05533C92.8241 9.12399 93.0334 9.25033 93.1991 9.43433C93.3682 9.61844 93.4573 9.85497 93.4488 10.0973C93.4488 10.344 93.3716 10.5677 93.2173 10.7683C93.0638 10.9637 92.8423 11.1217 92.553 11.2423C92.2402 11.3622 91.9043 11.4208 91.5663 11.4143C91.062 11.4143 90.6284 11.3053 90.2655 11.0873C89.9164 10.8807 89.6603 10.562 89.5455 10.1913L90.3855 10.0623C90.5891 10.4757 90.9795 10.6823 91.5566 10.6823C91.8773 10.6823 92.1202 10.628 92.2852 10.5193C92.3679 10.4673 92.435 10.3964 92.4803 10.3135C92.5257 10.2306 92.5478 10.1384 92.5445 10.0453C92.5458 9.9607 92.5246 9.87707 92.4827 9.80201C92.4408 9.72694 92.3796 9.66278 92.3045 9.61533C92.1502 9.50599 91.9009 9.45133 91.5566 9.45133H90.9298V8.71133H91.5566C91.8516 8.71133 92.0763 8.65933 92.2305 8.55533C92.3051 8.51146 92.3664 8.45043 92.4084 8.37811C92.4504 8.30579 92.4718 8.22459 92.4705 8.14233C92.4712 8.05343 92.4479 7.96581 92.4028 7.88752C92.3577 7.80924 92.2922 7.7428 92.2123 7.69433C92.032 7.57528 91.8148 7.51485 91.5941 7.52233C91.3665 7.51923 91.1426 7.57607 90.948 7.68633C90.7597 7.79251 90.6088 7.94792 90.5141 8.13333L89.6752 7.99633C89.8166 7.61166 90.0595 7.31599 90.4038 7.10933C90.7673 6.89322 91.1911 6.78224 91.622 6.79033C91.9541 6.79033 92.2523 6.845 92.5166 6.95433C92.7873 7.063 92.9963 7.21499 93.1434 7.41033C93.2977 7.60499 93.3748 7.82333 93.3748 8.06533C93.382 8.29245 93.3035 8.5147 93.153 8.69333C93.0028 8.86614 92.8 8.99237 92.5713 9.05533Z" fill="white"/>
</g>
<defs>
<clipPath id="clip0_59_198">
<rect width="120" height="42.2222" fill="white"/>
</clipPath>
</defs>
</svg>
