<svg width="120" height="43" viewBox="0 0 120 43" fill="none" xmlns="http://www.w3.org/2000/svg">
<path d="M115.556 0H4.44444C3.2657 0 2.13524 0.526784 1.30175 1.46447C0.468253 2.40215 0 3.67392 0 5L0 35C0 36.3261 0.468253 37.5979 1.30175 38.5355C2.13524 39.4732 3.2657 40 4.44444 40H115.556C116.734 40 117.865 39.4732 118.698 38.5355C119.532 37.5979 120 36.3261 120 35V5C120 3.67392 119.532 2.40215 118.698 1.46447C117.865 0.526784 116.734 0 115.556 0Z" fill="black"/>
<path d="M115.556 0.8C116.546 0.8 117.495 1.2425 118.195 2.03015C118.896 2.8178 119.289 3.88609 119.289 5V35C119.289 36.1139 118.896 37.1822 118.195 37.9698C117.495 38.7575 116.546 39.2 115.556 39.2H4.44444C3.4543 39.2 2.50471 38.7575 1.80458 37.9698C1.10444 37.1822 0.711111 36.1139 0.711111 35V5C0.711111 3.88609 1.10444 2.8178 1.80458 2.03015C2.50471 1.2425 3.4543 0.8 4.44444 0.8H115.556ZM115.556 0H4.44444C3.2657 0 2.13524 0.526784 1.30175 1.46447C0.468253 2.40215 0 3.67392 0 5L0 35C0 36.3261 0.468253 37.5979 1.30175 38.5355C2.13524 39.4732 3.2657 40 4.44444 40H115.556C116.734 40 117.865 39.4732 118.698 38.5355C119.532 37.5979 120 36.3261 120 35V5C120 3.67392 119.532 2.40215 118.698 1.46447C117.865 0.526784 116.734 0 115.556 0Z" fill="#A6A6A6"/>
<path d="M60.5688 21.7501C59.8224 21.754 59.0938 22.0067 58.4748 22.476C57.8559 22.9454 57.3745 23.6106 57.0913 24.3875C56.8081 25.1644 56.7358 26.0183 56.8836 26.8414C57.0313 27.6645 57.3925 28.4199 57.9216 29.0123C58.4506 29.6047 59.1238 30.0075 59.8561 30.1698C60.5884 30.3322 61.3471 30.2469 62.0364 29.9246C62.7256 29.6024 63.3146 29.0576 63.7289 28.3592C64.1432 27.6607 64.3644 26.8398 64.3644 26.0001C64.3716 25.438 64.2783 24.8801 64.0898 24.3594C63.9014 23.8388 63.6218 23.3661 63.2677 22.9696C62.9136 22.5731 62.4921 22.2607 62.0284 22.0512C61.5648 21.8417 61.0684 21.7393 60.5688 21.7501ZM60.5688 28.5801C60.1098 28.6162 59.6517 28.4961 59.2541 28.2355C58.8565 27.9748 58.5378 27.5856 58.3395 27.1185C58.1411 26.6514 58.0723 26.128 58.1418 25.6162C58.2114 25.1045 58.4162 24.6282 58.7297 24.2491C59.0431 23.8701 59.4506 23.6059 59.8993 23.4909C60.3479 23.3758 60.817 23.4153 61.2454 23.6042C61.6739 23.793 62.0419 24.1225 62.3017 24.5498C62.5615 24.9771 62.701 25.4824 62.7021 26.0001C62.7165 26.3281 62.6722 26.656 62.5721 26.9645C62.472 27.273 62.318 27.5558 62.1192 27.7963C61.9203 28.0367 61.6807 28.23 61.4144 28.3646C61.1482 28.4992 60.8606 28.5725 60.5688 28.5801ZM52.2933 21.7501C51.5465 21.7521 50.8169 22.003 50.1969 22.4712C49.5768 22.9394 49.0939 23.6038 48.8094 24.3806C48.5248 25.1574 48.4513 26.0116 48.598 26.8353C48.7448 27.6591 49.1053 28.4154 49.634 29.0088C50.1627 29.6022 50.8358 30.006 51.5684 30.1691C52.301 30.3323 53.0601 30.2476 53.7499 29.9256C54.4397 29.6037 55.0291 29.0589 55.4439 28.3602C55.8586 27.6615 56.0799 26.8402 56.0799 26.0001C56.0872 25.438 55.9938 24.8801 55.8054 24.3594C55.617 23.8388 55.3374 23.3661 54.9833 22.9696C54.6291 22.5731 54.2077 22.2607 53.744 22.0512C53.2803 21.8417 52.7839 21.7393 52.2844 21.7501H52.2933ZM52.2933 28.5801C51.834 28.6182 51.3751 28.5 50.9765 28.2406C50.5778 27.9813 50.2578 27.593 50.058 27.1262C49.8583 26.6594 49.788 26.1357 49.8565 25.6234C49.925 25.1111 50.129 24.6339 50.442 24.2538C50.7549 23.8737 51.1623 23.6085 51.6112 23.4925C52.06 23.3766 52.5295 23.4154 52.9585 23.6038C53.3874 23.7922 53.756 24.1216 54.0163 24.549C54.2766 24.9764 54.4164 25.482 54.4177 26.0001C54.432 26.3281 54.3878 26.656 54.2877 26.9645C54.1876 27.273 54.0335 27.5558 53.8347 27.7963C53.6359 28.0367 53.3963 28.23 53.13 28.3646C52.8637 28.4992 52.5762 28.5725 52.2844 28.5801H52.2933ZM42.4355 23.0601V24.8601H46.2755C46.2153 25.7079 45.902 26.5079 45.3866 27.1301C45.0024 27.5703 44.5406 27.9152 44.0308 28.1426C43.521 28.3699 42.9745 28.4747 42.4266 28.4501C41.8663 28.4501 41.3115 28.3259 40.7938 28.0847C40.2761 27.8435 39.8058 27.4899 39.4096 27.0442C39.0134 26.5985 38.6991 26.0693 38.4847 25.487C38.2703 24.9046 38.1599 24.2804 38.1599 23.6501C38.1599 23.0197 38.2703 22.3956 38.4847 21.8132C38.6991 21.2309 39.0134 20.7017 39.4096 20.256C39.8058 19.8103 40.2761 19.4567 40.7938 19.2155C41.3115 18.9742 41.8663 18.8501 42.4266 18.8501C43.5091 18.8302 44.5544 19.2941 45.3332 20.1401L46.4621 18.8701C45.936 18.2716 45.3087 17.7977 44.6171 17.4766C43.9255 17.1554 43.1837 16.9934 42.4355 17.0001C41.6473 16.9692 40.8616 17.1172 40.1254 17.4353C39.3891 17.7533 38.7173 18.2349 38.15 18.8512C37.5827 19.4676 37.1315 20.2062 36.8234 21.0229C36.5152 21.8397 36.3564 22.7178 36.3564 23.6051C36.3564 24.4924 36.5152 25.3705 36.8234 26.1873C37.1315 27.004 37.5827 27.7426 38.15 28.359C38.7173 28.9753 39.3891 29.4569 40.1254 29.7749C40.8616 30.093 41.6473 30.241 42.4355 30.2101C43.1963 30.2488 43.9557 30.1037 44.6625 29.7846C45.3694 29.4655 46.0072 28.9797 46.5332 28.3601C47.4645 27.209 47.9617 25.6959 47.9199 24.1401C47.9221 23.7611 47.8923 23.3828 47.831 23.0101L42.4355 23.0601ZM82.711 24.4601C82.4792 23.6928 82.0457 23.0229 81.4679 22.5389C80.8901 22.055 80.1953 21.7799 79.4755 21.7501C78.9893 21.749 78.508 21.8602 78.0615 22.0766C77.6149 22.2931 77.2126 22.6103 76.8794 23.0086C76.5461 23.407 76.289 23.8779 76.124 24.3925C75.959 24.907 75.8895 25.4542 75.9199 26.0001C75.9091 26.559 75.9986 27.1146 76.1829 27.6338C76.3672 28.1529 76.6427 28.625 76.9928 29.0217C77.343 29.4184 77.7606 29.7316 78.2208 29.9427C78.6809 30.1537 79.1741 30.2583 79.671 30.2501C80.2928 30.2539 80.9057 30.0841 81.4549 29.756C82.004 29.4279 82.4723 28.9517 82.8177 28.3701L81.5288 27.3701C81.3364 27.7309 81.0641 28.0293 80.7384 28.2361C80.4128 28.443 80.045 28.5512 79.671 28.5501C79.286 28.5666 78.9054 28.4524 78.5789 28.2223C78.2523 27.9923 77.9948 27.657 77.8399 27.2601L82.8977 24.9101L82.711 24.4601ZM77.5555 25.8801C77.5375 25.5708 77.5745 25.2605 77.6644 24.9675C77.7543 24.6745 77.8952 24.4046 78.079 24.1737C78.2628 23.9427 78.4857 23.7553 78.7346 23.6225C78.9836 23.4897 79.2536 23.4141 79.5288 23.4001C79.8155 23.3788 80.1015 23.4528 80.3512 23.6128C80.6009 23.7728 80.8033 24.0118 80.9333 24.3001L77.5555 25.8801ZM73.4488 30.0001H75.111V17.5001H73.4488V30.0001ZM70.7288 22.7001H70.6666C70.4161 22.385 70.1092 22.133 69.766 21.9607C69.4229 21.7883 69.0513 21.6995 68.6755 21.7001C67.7041 21.7531 66.788 22.2245 66.1172 23.0167C65.4464 23.8088 65.0722 24.861 65.0722 25.9551C65.0722 27.0492 65.4464 28.1014 66.1172 28.8935C66.788 29.6857 67.7041 30.1571 68.6755 30.2101C69.0522 30.2172 69.4256 30.1314 69.7696 29.9586C70.1137 29.7858 70.4198 29.5303 70.6666 29.2101H70.7199V29.8201C70.7199 31.4501 69.9466 32.3201 68.7021 32.3201C68.2877 32.3092 67.8855 32.1598 67.5467 31.8909C67.208 31.622 66.948 31.2457 66.7999 30.8101L65.351 31.4901C65.6238 32.2365 66.0885 32.8741 66.6856 33.3213C67.2826 33.7686 67.9848 34.0049 68.7021 34.0001C70.6488 34.0001 72.2577 32.7101 72.2577 29.5701V22.0001H70.7288V22.7001ZM68.8266 28.5801C68.2532 28.5232 67.7196 28.2268 67.3308 27.7493C66.9421 27.2717 66.7265 26.6476 66.7265 26.0001C66.7265 25.3525 66.9421 24.7285 67.3308 24.2509C67.7196 23.7734 68.2532 23.4769 68.8266 23.4201C69.1109 23.4365 69.3894 23.5168 69.6457 23.6561C69.9019 23.7955 70.1309 23.9912 70.3189 24.2316C70.5069 24.472 70.6503 24.7524 70.7405 25.0561C70.8308 25.3598 70.8661 25.6808 70.8444 26.0001C70.8686 26.3208 70.8348 26.6437 70.745 26.9492C70.6551 27.2548 70.5111 27.5367 70.3217 27.7779C70.1322 28.0191 69.9013 28.2145 69.6427 28.3524C69.3842 28.4903 69.1036 28.5677 68.8177 28.5801H68.8266ZM90.4977 17.5001H86.5244V30.0001H88.1866V25.2601H90.5066C90.9793 25.2963 91.4535 25.2229 91.8999 25.0443C92.3463 24.8657 92.7552 24.5858 93.1015 24.222C93.4477 23.8581 93.7237 23.4181 93.9124 22.9293C94.1011 22.4404 94.1985 21.9131 94.1985 21.3801C94.1985 20.8471 94.1011 20.3198 93.9124 19.8309C93.7237 19.3421 93.4477 18.902 93.1015 18.5382C92.7552 18.1744 92.3463 17.8945 91.8999 17.7159C91.4535 17.5373 90.9793 17.4639 90.5066 17.5001H90.4977ZM90.4977 23.5001H88.1777V19.2401H90.5332C90.91 19.2409 91.2782 19.3673 91.5913 19.6031C91.9043 19.8389 92.1484 20.1738 92.2926 20.5654C92.4368 20.957 92.4747 21.3879 92.4016 21.8037C92.3285 22.2196 92.1476 22.6017 91.8817 22.9021C91.5238 23.3039 91.0389 23.5297 90.5332 23.5301L90.4977 23.5001ZM100.747 21.7001C100.141 21.6594 99.5389 21.8185 99.0131 22.1578C98.4872 22.4971 98.0609 23.0019 97.7866 23.6101L99.2621 24.3001C99.4076 23.9984 99.6279 23.7509 99.8962 23.5875C100.164 23.4242 100.469 23.3521 100.773 23.3801C101.091 23.3383 101.413 23.4047 101.697 23.5706C101.981 23.7366 102.214 23.9945 102.366 24.3111C102.467 24.5211 102.53 24.7521 102.551 24.9901V25.1201C102.018 24.8009 101.422 24.636 100.818 24.6401C99.2266 24.6401 97.6177 25.6401 97.6177 27.4501C97.6339 27.8359 97.7184 28.2143 97.8663 28.5629C98.0142 28.9115 98.2225 29.2233 98.479 29.4801C98.7362 29.736 99.0363 29.9315 99.3616 30.0551C99.6868 30.1788 100.031 30.2281 100.373 30.2001C100.792 30.2339 101.211 30.1403 101.586 29.9292C101.962 29.718 102.279 29.3971 102.507 29.0001H102.56V30.0001H104.16V25.1901C104.16 23.0001 102.684 21.7301 100.791 21.7301L100.747 21.7001ZM100.542 28.5501C99.9999 28.5501 99.2444 28.2401 99.2444 27.4901C99.2444 26.4901 100.187 26.1601 101.022 26.1601C101.55 26.1444 102.072 26.2896 102.533 26.5801C102.477 27.1212 102.249 27.6213 101.892 27.9886C101.534 28.356 101.071 28.566 100.587 28.5801L100.542 28.5501ZM109.991 22.0001L108.089 27.4201H108.035L106.062 22.0001H104.284L107.244 29.5801L105.555 33.7901H107.289L111.84 22.0001H109.991ZM95.0488 30.0001H96.711V17.5001H95.0488V30.0001Z" fill="white"/>
<path d="M9.28024 7.53997C8.99052 7.93108 8.84428 8.43177 8.87135 8.93997V31.06C8.84428 31.5682 8.99052 32.0689 9.28024 32.46L9.34246 32.53L20.3558 20.15V19.86L9.34246 7.46997L9.28024 7.53997Z" fill="url(#paint0_linear_59_222)"/>
<path d="M23.9999 24.28L20.3555 20.15V19.86L23.9999 15.72L24.0799 15.77L28.4444 18.56C29.6888 19.35 29.6888 20.65 28.4444 21.45L24.0977 24.23L23.9999 24.28Z" fill="url(#paint1_linear_59_222)"/>
<path d="M24.1065 24.22L20.3553 20L9.27979 32.46C9.53344 32.7109 9.85702 32.8541 10.1946 32.8651C10.5322 32.876 10.8626 32.754 11.1287 32.52L24.1153 24.22" fill="url(#paint2_linear_59_222)"/>
<path d="M24.1066 15.78L11.1199 7.48005C10.8538 7.24606 10.5234 7.124 10.1858 7.13496C9.84823 7.14591 9.52465 7.2892 9.271 7.54005L20.3554 20L24.1066 15.78Z" fill="url(#paint3_linear_59_222)"/>
<path opacity="0.2" d="M23.9998 24.1299L11.1198 32.3799C10.8632 32.5957 10.5513 32.7124 10.2309 32.7124C9.91047 32.7124 9.59864 32.5957 9.34201 32.3799L9.27979 32.4499L9.34201 32.5199C9.59806 32.7373 9.91011 32.8549 10.2309 32.8549C10.5517 32.8549 10.8637 32.7373 11.1198 32.5199L24.1065 24.2199L23.9998 24.1299Z" fill="black"/>
<path opacity="0.12" d="M9.28024 32.32C8.99052 31.9289 8.84428 31.4282 8.87135 30.92V31.07C8.84428 31.5782 8.99052 32.0789 9.28024 32.47L9.34246 32.4L9.28024 32.32ZM28.4447 21.3L24.0002 24.13L24.0802 24.22L28.4447 21.44C28.6923 21.3091 28.9049 21.1071 29.061 20.8543C29.217 20.6014 29.3111 20.3068 29.3336 20C29.2836 20.2787 29.1775 20.5408 29.0234 20.7662C28.8693 20.9915 28.6713 21.1742 28.4447 21.3Z" fill="black"/>
<path opacity="0.25" d="M11.1201 7.61994L28.4445 18.6999C28.6712 18.8258 28.8691 19.0084 29.0232 19.2338C29.1773 19.4591 29.2834 19.7212 29.3334 19.9999C29.3109 19.6932 29.2169 19.3985 29.0608 19.1457C28.9047 18.8929 28.6922 18.6908 28.4445 18.5599L11.1201 7.47994C9.87564 6.68994 8.8623 7.34994 8.8623 8.94994V9.09994C8.88897 7.48994 9.88453 6.82994 11.1201 7.61994Z" fill="white"/>
<path d="M37.4312 14.27H36.7734V12.27H37.3334C37.5888 11.9656 37.7816 11.6018 37.8983 11.2044C38.0151 10.807 38.0528 10.3856 38.009 9.96997V6.99997H41.5645V12.26H42.1601V14.26H41.5023V13H37.4312V14.27ZM38.6668 9.99997C38.7082 10.8066 38.5316 11.6085 38.1601 12.3H40.8268V7.73997H38.6668V9.99997ZM47.4757 12.22C46.956 12.8013 46.253 13.1276 45.5201 13.1276C44.7873 13.1276 44.0842 12.8013 43.5645 12.22C43.0595 11.6185 42.7781 10.8224 42.7781 9.99497C42.7781 9.16753 43.0595 8.37145 43.5645 7.76997C43.8207 7.47971 44.1253 7.24935 44.461 7.09214C44.7966 6.93494 45.1566 6.854 45.5201 6.854C45.8837 6.854 46.2436 6.93494 46.5792 7.09214C46.9149 7.24935 47.2195 7.47971 47.4757 7.76997C47.9828 8.3703 48.2655 9.16682 48.2655 9.99497C48.2655 10.8231 47.9828 11.6196 47.4757 12.22ZM44.0712 11.72C44.456 12.1511 44.977 12.3931 45.5201 12.3931C46.0632 12.3931 46.5842 12.1511 46.969 11.72C47.3488 11.249 47.5591 10.6359 47.5591 9.99997C47.5591 9.36408 47.3488 8.75095 46.969 8.27997C46.5842 7.84885 46.0632 7.6068 45.5201 7.6068C44.977 7.6068 44.456 7.84885 44.0712 8.27997C43.6915 8.75095 43.4811 9.36408 43.4811 9.99997C43.4811 10.6359 43.6915 11.249 44.0712 11.72ZM51.7157 13.13C51.3487 13.1382 50.9841 13.0627 50.6437 12.9082C50.3034 12.7537 49.9943 12.5233 49.7352 12.2309C49.4761 11.9384 49.2723 11.59 49.136 11.2066C48.9997 10.8232 48.9339 10.4128 48.9423 9.99997C48.9339 9.58717 48.9997 9.17672 49.136 8.79332C49.2723 8.40993 49.4761 8.06152 49.7352 7.76908C49.9943 7.47665 50.3034 7.24623 50.6437 7.09171C50.9841 6.93719 51.3487 6.86176 51.7157 6.86997C52.0876 6.85961 52.4568 6.94421 52.7955 7.11741C53.1342 7.29061 53.4336 7.5479 53.6712 7.86997L53.1912 8.38997C53.0156 8.13922 52.7893 7.93938 52.531 7.80717C52.2728 7.67495 51.9902 7.61419 51.7068 7.62997C51.4339 7.62199 51.1625 7.67637 50.9089 7.78981C50.6552 7.90326 50.4247 8.07341 50.2312 8.28997C49.8458 8.76377 49.6321 9.38273 49.6321 10.025C49.6321 10.6672 49.8458 11.2862 50.2312 11.76C50.4247 11.9765 50.6552 12.1467 50.9089 12.2601C51.1625 12.3736 51.4339 12.4279 51.7068 12.42C52.0196 12.4168 52.328 12.3353 52.6093 12.1814C52.8907 12.0274 53.1381 11.8049 53.3334 11.53L53.8134 12.07C53.5719 12.4006 53.2684 12.6669 52.9246 12.85C52.5451 13.0433 52.1321 13.139 51.7157 13.13ZM56.6045 13H55.9201V7.73997H54.4268V6.99997H58.089V7.73997H56.6045V13ZM62.8001 6.99997L60.7823 12.06C60.7016 12.3593 60.5402 12.623 60.3204 12.8147C60.1007 13.0064 59.8335 13.1165 59.5557 13.13C59.3718 13.1285 59.1902 13.0842 59.0223 13L59.2001 12.29C59.3085 12.36 59.4312 12.399 59.5557 12.4C59.6864 12.4117 59.817 12.3767 59.929 12.3C60.0361 12.198 60.1186 12.0673 60.169 11.92L60.3646 11.44L58.5868 7.00997H59.3957L60.7112 10.45L61.9912 6.99997H62.8001ZM63.5734 13V6.99997H67.4312V13H66.7468V7.73997H64.2579V13H63.5734ZM68.649 13V6.99997H69.3334V9.56997H72.0001V6.99997H72.6845V13H72.0001V10.29H69.3334V13H68.649ZM78.2757 12.22C77.756 12.8013 77.053 13.1276 76.3201 13.1276C75.5873 13.1276 74.8842 12.8013 74.3646 12.22C73.8595 11.6185 73.5781 10.8224 73.5781 9.99497C73.5781 9.16753 73.8595 8.37145 74.3646 7.76997C74.6207 7.47971 74.9253 7.24935 75.261 7.09214C75.5966 6.93494 75.9566 6.854 76.3201 6.854C76.6837 6.854 77.0436 6.93494 77.3792 7.09214C77.7149 7.24935 78.0195 7.47971 78.2757 7.76997C78.7827 8.3703 79.0655 9.16682 79.0655 9.99497C79.0655 10.8231 78.7827 11.6196 78.2757 12.22ZM74.8712 11.72C75.256 12.1511 75.777 12.3931 76.3201 12.3931C76.8632 12.3931 77.3842 12.1511 77.769 11.72C78.1488 11.249 78.3591 10.6359 78.3591 9.99997C78.3591 9.36408 78.1488 8.75095 77.769 8.27997C77.3842 7.84885 76.8632 7.6068 76.3201 7.6068C75.777 7.6068 75.256 7.84885 74.8712 8.27997C74.4915 8.75095 74.2811 9.36408 74.2811 9.99997C74.2811 10.6359 74.4915 11.249 74.8712 11.72ZM81.8579 13V6.99997H83.7868C84.1873 6.99146 84.5754 7.1561 84.8712 7.45997C85.0198 7.60499 85.1381 7.78495 85.218 7.98713C85.2979 8.18931 85.3373 8.40876 85.3334 8.62997C85.3382 8.89662 85.2699 9.15846 85.1379 9.37997C85.007 9.59504 84.8254 9.76474 84.6134 9.86997C84.8712 9.96597 85.097 10.147 85.2623 10.39C85.433 10.635 85.5245 10.939 85.5201 11.25C85.5246 11.4805 85.484 11.7093 85.401 11.9202C85.3181 12.131 85.1948 12.3188 85.0401 12.47C84.7306 12.7912 84.3234 12.9665 83.9023 12.96L81.8579 13ZM82.5423 9.56997H83.7868C83.903 9.57543 84.0189 9.55231 84.1263 9.50222C84.2338 9.45214 84.3303 9.37629 84.409 9.27997C84.4877 9.19969 84.5512 9.1024 84.5958 8.9939C84.6403 8.8854 84.665 8.76792 84.6683 8.64846C84.6716 8.52901 84.6535 8.41002 84.6151 8.2986C84.5766 8.18719 84.5186 8.08562 84.4445 7.99997C84.3703 7.90544 84.2784 7.83046 84.1755 7.78035C84.0726 7.73023 83.9611 7.7062 83.849 7.70997H82.5779L82.5423 9.56997ZM82.5423 12.26H83.9201C84.0405 12.2645 84.1603 12.2391 84.2709 12.1855C84.3816 12.1319 84.4803 12.0515 84.5601 11.95C84.7168 11.7671 84.8058 11.524 84.809 11.27C84.809 11.0048 84.7153 10.7504 84.5486 10.5629C84.3819 10.3753 84.1559 10.27 83.9201 10.27H82.569L82.5423 12.26Z" fill="white" stroke="white" stroke-width="0.2" stroke-miterlimit="10"/>
<defs>
<linearGradient id="paint0_linear_59_222" x1="19.378" y1="8.70997" x2="2.71374" y2="23.5227" gradientUnits="userSpaceOnUse">
<stop stop-color="#00A0FF"/>
<stop offset="0.01" stop-color="#00A1FF"/>
<stop offset="0.26" stop-color="#00BEFF"/>
<stop offset="0.51" stop-color="#00D2FF"/>
<stop offset="0.76" stop-color="#00DFFF"/>
<stop offset="1" stop-color="#00E3FF"/>
</linearGradient>
<linearGradient id="paint1_linear_59_222" x1="30.071" y1="20" x2="8.5688" y2="20" gradientUnits="userSpaceOnUse">
<stop stop-color="#FFE000"/>
<stop offset="0.41" stop-color="#FFBD00"/>
<stop offset="0.78" stop-color="#FFA500"/>
<stop offset="1" stop-color="#FF9C00"/>
</linearGradient>
<linearGradient id="paint2_linear_59_222" x1="22.0709" y1="22.3" x2="-0.530974" y2="42.3817" gradientUnits="userSpaceOnUse">
<stop stop-color="#FF3A44"/>
<stop offset="1" stop-color="#C31162"/>
</linearGradient>
<linearGradient id="paint3_linear_59_222" x1="6.48877" y1="0.180048" x2="16.5787" y2="9.14888" gradientUnits="userSpaceOnUse">
<stop stop-color="#32A071"/>
<stop offset="0.07" stop-color="#2DA771"/>
<stop offset="0.48" stop-color="#15CF74"/>
<stop offset="0.8" stop-color="#06E775"/>
<stop offset="1" stop-color="#00F076"/>
</linearGradient>
</defs>
</svg>
