<svg width="120" height="43" viewBox="0 0 120 43" fill="none" xmlns="http://www.w3.org/2000/svg">
<mask id="mask0_59_182" style="mask-type:luminance" maskUnits="userSpaceOnUse" x="0" y="0" width="120" height="40">
<path d="M0 0H119.664V40H0V0Z" fill="white"/>
</mask>
<g mask="url(#mask0_59_182)">
<path d="M110.135 0H9.53502C9.16902 0 8.80402 0.000666667 8.44002 0.002C8.13536 0.00466667 7.82902 0.009 7.52102 0.015C6.84902 0.0236667 6.18102 0.082 5.51702 0.19C4.85588 0.302725 4.2154 0.514081 3.61702 0.817C2.71719 1.27737 1.93835 1.94309 1.34352 2.76029C0.748687 3.57749 0.35456 4.52323 0.193023 5.521C0.0817792 6.18271 0.0219337 6.85205 0.0140234 7.523C0.00402344 7.83 0.00402344 8.138 -0.000976562 8.444V31.56C0.00402344 31.87 0.00502344 32.17 0.0140234 32.481C0.0220234 33.153 0.0820234 33.8203 0.194023 34.483C0.304023 35.146 0.514023 35.789 0.818023 36.388C1.12115 36.9862 1.51932 37.5313 1.99702 38.002C2.47007 38.4787 3.0163 38.8768 3.61502 39.181C4.21355 39.4851 4.85437 39.6974 5.51602 39.811C6.18002 39.9203 6.84802 39.9793 7.52002 39.988C7.83002 39.995 8.13302 39.999 8.43902 39.999C8.80502 40.001 9.16702 40.001 9.53402 40.001H110.134C110.493 40.001 110.858 40.001 111.218 39.999C111.522 39.999 111.835 39.995 112.14 39.989C112.811 39.9797 113.477 39.9203 114.14 39.811C114.804 39.6966 115.447 39.4843 116.048 39.181C116.647 38.8761 117.193 38.4774 117.666 38C118.142 37.5273 118.541 36.9826 118.848 36.386C119.15 35.786 119.358 35.144 119.467 34.481C119.578 33.819 119.64 33.1517 119.652 32.479C119.656 32.169 119.656 31.869 119.656 31.558C119.664 31.194 119.664 30.833 119.664 30.464V9.536C119.665 9.17 119.663 8.806 119.656 8.444C119.657 8.13733 119.655 7.83067 119.652 7.524C119.64 6.85268 119.578 6.18318 119.467 5.521C119.357 4.85926 119.148 4.21777 118.848 3.618C118.231 2.41512 117.252 1.43593 116.049 0.818C115.448 0.515713 114.805 0.304409 114.141 0.191C113.479 0.081 112.812 0.0223333 112.141 0.015C111.836 0.01 111.523 0.004 111.219 0.002C110.859 0 110.494 0 110.135 0Z" fill="#A6A6A6"/>
<path d="M8.44505 39.125C8.14005 39.125 7.84305 39.121 7.54105 39.115C6.91458 39.1055 6.28961 39.0507 5.67105 38.951C5.09494 38.8514 4.53685 38.6667 4.01505 38.403C3.49788 38.1415 3.02618 37.7984 2.61805 37.387C2.20384 36.9803 1.85925 36.5084 1.59805 35.99C1.33279 35.4688 1.14931 34.91 1.05405 34.333C0.951287 33.7131 0.895794 33.0863 0.888047 32.458C0.881047 32.248 0.873047 31.545 0.873047 31.545V8.445C0.873047 8.445 0.882047 7.753 0.888047 7.55C0.895615 6.92272 0.950773 6.29693 1.05305 5.678C1.14934 5.09969 1.33276 4.53932 1.59705 4.016C1.85705 3.498 2.20005 3.026 2.61205 2.618C3.4401 1.78646 4.50964 1.23769 5.66805 1.05C6.28938 0.95 6.91438 0.895667 7.54305 0.887L8.44505 0.875H111.214L112.127 0.888C112.75 0.895281 113.371 0.949434 113.985 1.05C114.566 1.14961 115.129 1.33426 115.656 1.598C116.694 2.13321 117.538 2.97932 118.071 4.018C118.332 4.538 118.512 5.094 118.607 5.667C118.71 6.29167 118.768 6.92067 118.78 7.554C118.783 7.837 118.783 8.142 118.783 8.444C118.791 8.819 118.791 9.176 118.791 9.536V30.465C118.791 30.828 118.791 31.183 118.783 31.54C118.783 31.865 118.783 32.163 118.779 32.47C118.768 33.0911 118.711 33.7104 118.608 34.323C118.515 34.9042 118.333 35.4676 118.068 35.993C117.804 36.5053 117.462 36.973 117.053 37.379C116.644 37.7928 116.172 38.1379 115.653 38.401C115.128 38.6665 114.565 38.8519 113.985 38.951C113.366 39.0523 112.743 39.1067 112.116 39.114C111.823 39.121 111.517 39.125 111.219 39.125L110.135 39.127L8.44505 39.125Z" fill="black"/>
<path d="M24.7692 20.2999C24.7802 19.4655 25.0019 18.6474 25.4138 17.9217C25.8258 17.196 26.4144 16.5862 27.1252 16.1489C26.6734 15.5041 26.0776 14.9734 25.385 14.5988C24.6925 14.2242 23.9222 14.0161 23.1352 13.9909C21.4552 13.8149 19.8272 14.9959 18.9712 14.9959C18.0992 14.9959 16.7812 14.0079 15.3632 14.0379C14.4457 14.0679 13.5516 14.3348 12.7678 14.8127C11.984 15.2906 11.3372 15.9631 10.8902 16.7649C8.95621 20.1139 10.3982 25.0349 12.2512 27.7419C13.1782 29.0669 14.2612 30.5469 15.6792 30.4949C17.0662 30.4369 17.5842 29.6099 19.2592 29.6099C20.9172 29.6099 21.4032 30.4949 22.8492 30.4619C24.3382 30.4369 25.2752 29.1299 26.1692 27.7919C26.8351 26.8475 27.3481 25.804 27.6892 24.6999C26.8241 24.3345 26.0858 23.7223 25.5664 22.9398C25.0471 22.1572 24.7699 21.2391 24.7692 20.2999ZM22.0372 12.2099C22.849 11.2361 23.249 9.98405 23.1522 8.71993C21.9122 8.8504 20.7669 9.44307 19.9442 10.3799C19.1326 11.3041 18.7212 12.5126 18.8002 13.7399C19.4203 13.7463 20.0339 13.612 20.5945 13.3469C21.1552 13.0819 21.6485 12.6932 22.0372 12.2099ZM42.3022 27.1399H37.5702L36.4332 30.4959H34.4282L38.9122 18.0779H40.9952L45.4782 30.4959H43.4392L42.3022 27.1399ZM38.0592 25.5899H41.8112L39.9612 20.1439H39.9102L38.0592 25.5899ZM55.1602 25.9699C55.1602 28.7829 53.6542 30.5899 51.3812 30.5899C50.8058 30.6199 50.2335 30.4874 49.7299 30.2074C49.2262 29.9275 48.8115 29.5115 48.5332 29.0069H48.4902V33.4909H46.6302V21.4419H48.4302V22.9479H48.4632C48.7541 22.4454 49.1759 22.0312 49.6836 21.7495C50.1913 21.4677 50.7659 21.3289 51.3462 21.3479C53.6442 21.3479 55.1602 23.1639 55.1602 25.9699ZM53.2502 25.9699C53.2502 24.1369 52.3022 22.9319 50.8572 22.9319C49.4372 22.9319 48.4822 24.1619 48.4822 25.9699C48.4822 27.7939 49.4372 29.0159 50.8572 29.0159C52.3022 29.0159 53.2502 27.8189 53.2502 25.9699ZM65.1242 25.9699C65.1242 28.7829 63.6192 30.5899 61.3462 30.5899C60.7708 30.6199 60.1985 30.4874 59.6949 30.2074C59.1912 29.9275 58.7765 29.5115 58.4982 29.0069H58.4552V33.4909H56.5962V21.4419H58.3952V22.9479H58.4292C58.7201 22.4454 59.1419 22.0312 59.6496 21.7495C60.1573 21.4677 60.7319 21.3289 61.3122 21.3479C63.6102 21.3479 65.1242 23.1639 65.1242 25.9699ZM63.2142 25.9699C63.2142 24.1369 62.2672 22.9319 60.8222 22.9319C59.4022 22.9319 58.4472 24.1619 58.4472 25.9699C58.4472 27.7939 59.4022 29.0159 60.8222 29.0159C62.2672 29.0159 63.2142 27.8189 63.2142 25.9699ZM71.7102 27.0359C71.8482 28.2679 73.0452 29.0759 74.6802 29.0759C76.2462 29.0759 77.3732 28.2679 77.3732 27.1569C77.3732 26.1929 76.6932 25.6169 75.0832 25.2209L73.4742 24.8329C71.1942 24.2829 70.1352 23.2159 70.1352 21.4849C70.1352 19.3429 72.0022 17.8709 74.6542 17.8709C77.2782 17.8709 79.0772 19.3429 79.1372 21.4849H77.2612C77.1492 20.2459 76.1252 19.4979 74.6272 19.4979C73.1292 19.4979 72.1062 20.2549 72.1062 21.3559C72.1062 22.2339 72.7602 22.7509 74.3612 23.1459L75.7292 23.4819C78.2772 24.0849 79.3352 25.1079 79.3352 26.9249C79.3352 29.2479 77.4852 30.7029 74.5422 30.7029C71.7882 30.7029 69.9282 29.2829 69.8082 27.0359H71.7102ZM83.3462 19.2999V21.4419H85.0682V22.9139H83.3462V27.9049C83.3462 28.6809 83.6912 29.0419 84.4482 29.0419C84.6522 29.0379 84.8559 29.0236 85.0592 28.9989V30.4619C84.7185 30.5253 84.3745 30.5539 84.0272 30.5479C82.1942 30.5479 81.4792 29.8589 81.4792 28.1039V22.9139H80.1632V21.4419H81.4792V19.2999H83.3462ZM86.0652 25.9699C86.0652 23.1209 87.7432 21.3309 90.3592 21.3309C92.9842 21.3309 94.6542 23.1209 94.6542 25.9699C94.6542 28.8259 92.9932 30.6079 90.3592 30.6079C87.7252 30.6079 86.0652 28.8259 86.0652 25.9699ZM92.7602 25.9699C92.7602 24.0159 91.8652 22.8619 90.3592 22.8619C88.8532 22.8619 87.9592 24.0239 87.9592 25.9699C87.9592 27.9319 88.8532 29.0759 90.3592 29.0759C91.8652 29.0759 92.7602 27.9319 92.7602 25.9699ZM96.1862 21.4419H97.9582V22.9829H98.0012C98.1214 22.5018 98.4035 22.0767 98.8001 21.7789C99.1967 21.4812 99.6837 21.329 100.179 21.3479C100.394 21.3466 100.606 21.3696 100.816 21.4169V23.1549C100.546 23.0725 100.264 23.0346 99.9812 23.0429C99.7112 23.0318 99.4419 23.0793 99.192 23.1821C98.942 23.2849 98.7173 23.4406 98.5332 23.6386C98.3492 23.8365 98.2102 24.0719 98.1258 24.3287C98.0413 24.5854 98.0135 24.8574 98.0442 25.1259V30.4959H96.1862V21.4419ZM109.384 27.8369C109.134 29.4799 107.534 30.6079 105.486 30.6079C102.852 30.6079 101.217 28.8439 101.217 26.0129C101.217 23.1729 102.861 21.3309 105.408 21.3309C107.913 21.3309 109.488 23.0509 109.488 25.7969V26.4339H103.093V26.5459C103.063 26.8792 103.105 27.215 103.215 27.531C103.325 27.8469 103.501 28.1357 103.732 28.3779C103.963 28.6203 104.242 28.811 104.552 28.9372C104.862 29.0634 105.195 29.1223 105.529 29.1099C105.968 29.1517 106.409 29.0503 106.786 28.8209C107.163 28.5914 107.456 28.2463 107.62 27.8369H109.384ZM103.102 25.1349H107.628C107.645 24.8353 107.6 24.5354 107.496 24.2542C107.391 23.9729 107.229 23.7165 107.02 23.5009C106.812 23.2848 106.561 23.1142 106.284 22.9999C106.006 22.8856 105.708 22.8301 105.408 22.8369C105.106 22.8352 104.806 22.8934 104.526 23.0082C104.246 23.123 103.991 23.2921 103.777 23.5057C103.562 23.7193 103.392 23.9733 103.277 24.2529C103.161 24.5325 103.102 24.8323 103.102 25.1349ZM36.7382 11.2529H37.5362C37.6735 11.2704 37.8129 11.2591 37.9457 11.2198C38.0784 11.1806 38.2015 11.1142 38.3073 11.0249C38.413 10.9356 38.4991 10.8253 38.56 10.7011C38.6209 10.5768 38.6554 10.4412 38.6612 10.3029C38.6612 9.75193 38.2472 9.39593 37.5452 9.39593C37.4045 9.37621 37.2612 9.38491 37.1239 9.42152C36.9865 9.45813 36.8579 9.5219 36.7457 9.60908C36.6334 9.69625 36.5398 9.80505 36.4703 9.92903C36.4009 10.053 36.3569 10.1897 36.3412 10.3309H35.4652C35.4802 10.0747 35.5478 9.82421 35.6639 9.5952C35.7799 9.36619 35.9418 9.16353 36.1396 8.99983C36.3373 8.83612 36.5667 8.71489 36.8133 8.64369C37.06 8.57248 37.3186 8.55282 37.5732 8.58593C38.7482 8.58593 39.5752 9.24393 39.5752 10.1899C39.578 10.5072 39.4719 10.8157 39.2746 11.0642C39.0774 11.3126 38.8008 11.4858 38.4912 11.5549V11.6249C38.8582 11.6413 39.2038 11.8023 39.4524 12.0727C39.7011 12.343 39.8326 12.7009 39.8182 13.0679C39.7908 13.3317 39.7111 13.5873 39.5838 13.8199C39.4564 14.0525 39.284 14.2574 39.0766 14.4226C38.8691 14.5877 38.6308 14.7099 38.3756 14.7819C38.1204 14.8539 37.8534 14.8743 37.5902 14.8419C37.3265 14.8778 37.0582 14.8602 36.8014 14.7902C36.5446 14.7202 36.3045 14.5993 36.0954 14.4346C35.8863 14.27 35.7125 14.0649 35.5843 13.8316C35.4561 13.5984 35.3762 13.3417 35.3492 13.0769H36.2392C36.2922 13.6469 36.8162 14.0159 37.5892 14.0159C38.3622 14.0159 38.8692 13.6019 38.8692 13.0189C38.8692 12.4279 38.3932 12.0629 37.5622 12.0629H36.7382V11.2529ZM40.8302 13.4239C40.8302 12.6139 41.4342 12.1469 42.5042 12.0799L43.7242 12.0099V11.6209C43.7242 11.1449 43.4102 10.8769 42.8022 10.8769C42.3062 10.8769 41.9622 11.0589 41.8632 11.3769H41.0032C41.0932 10.6039 41.8232 10.1069 42.8432 10.1069C43.9732 10.1069 44.6092 10.6699 44.6092 11.6209V14.6979H43.7532V14.0649H43.6832C43.5401 14.2916 43.3395 14.4764 43.1019 14.6006C42.8643 14.7248 42.5981 14.7839 42.3302 14.7719C42.1412 14.7915 41.9502 14.7712 41.7695 14.7125C41.5888 14.6537 41.4225 14.5577 41.2812 14.4307C41.1398 14.3037 41.0267 14.1485 40.949 13.9751C40.8714 13.8017 40.8309 13.6139 40.8302 13.4239ZM43.7242 13.0399V12.6629L42.6242 12.7329C42.0042 12.7749 41.7232 12.9859 41.7232 13.3829C41.7232 13.7879 42.0742 14.0229 42.5582 14.0229C42.6998 14.0375 42.8428 14.0234 42.9789 13.9815C43.1149 13.9395 43.241 13.8707 43.3499 13.7789C43.4587 13.6872 43.5479 13.5745 43.6122 13.4475C43.6765 13.3205 43.7146 13.1819 43.7242 13.0399ZM46.9682 10.9429V14.6979H46.0792V10.1949H49.0442V10.9429H46.9682ZM54.4302 12.4439C54.4302 13.8749 53.7062 14.7719 52.5702 14.7719C52.2912 14.7908 52.0126 14.7297 51.7671 14.5958C51.5216 14.4619 51.3194 14.2607 51.1842 14.0159H51.1142V16.1949H50.2242V10.1949H51.0802V10.9389H51.1472C51.2841 10.685 51.4888 10.4741 51.7384 10.3295C51.988 10.1849 52.2728 10.1124 52.5612 10.1199C53.7062 10.1199 54.4302 11.0129 54.4302 12.4439ZM53.5162 12.4439C53.5162 11.4939 53.0662 10.9179 52.3132 10.9179C51.5652 10.9179 51.0972 11.5049 51.0972 12.4479C51.0972 13.3869 51.5652 13.9739 52.3092 13.9739C53.0652 13.9739 53.5162 13.3989 53.5162 12.4439ZM55.6132 16.3099V15.5449C55.7092 15.5576 55.8059 15.5633 55.9032 15.5619C56.0926 15.5762 56.2806 15.52 56.431 15.404C56.5814 15.2881 56.6837 15.1207 56.7182 14.9339L56.7842 14.7139L55.1542 10.1939H56.1222L57.2512 13.7709H57.3212L58.4462 10.1949H59.3892L57.7102 14.8839C57.3252 15.9789 56.9002 16.3309 55.9812 16.3309C55.8583 16.3299 55.7355 16.3233 55.6132 16.3109V16.3099ZM60.0812 13.4199H60.9662C61.0532 13.8169 61.4252 14.0239 61.9462 14.0239C62.5372 14.0239 62.9002 13.7639 62.9002 13.3579C62.9002 12.9239 62.5742 12.7169 61.9452 12.7169H61.2722V12.0269H61.9342C62.4712 12.0269 62.7442 11.8199 62.7442 11.4429C62.7442 11.1129 62.4802 10.8599 61.9342 10.8599C61.4372 10.8599 61.0742 11.0709 61.0162 11.4269H60.1592C60.2235 11.0184 60.4453 10.6513 60.7772 10.4045C61.1091 10.1577 61.5245 10.0509 61.9342 10.1069C63.0042 10.1069 63.6162 10.5919 63.6162 11.3529C63.6211 11.5645 63.5533 11.7714 63.424 11.939C63.2948 12.1066 63.1121 12.2248 62.9062 12.2739V12.3439C63.1517 12.3758 63.3769 12.4966 63.5391 12.6835C63.7013 12.8705 63.7892 13.1105 63.7862 13.3579C63.7862 14.2139 63.0582 14.7799 61.9462 14.7799C60.9622 14.7799 60.1632 14.3299 60.0812 13.4199ZM65.0662 14.6979V10.1949H65.9462V13.2919H66.0172L68.0922 10.1949H68.9732V14.6979H68.0932V11.5839H68.0262L65.9462 14.6979H65.0662ZM73.8262 10.9429H72.4082V14.6979H71.5182V10.9429H70.1002V10.1949H73.8262V10.9429ZM78.6132 13.4819C78.4922 13.8935 78.2304 14.2494 77.8736 14.4876C77.5168 14.7257 77.0877 14.831 76.6612 14.7849C76.3645 14.7928 76.0696 14.736 75.797 14.6185C75.5244 14.5009 75.2807 14.3254 75.0827 14.1042C74.8848 13.8829 74.7374 13.6212 74.6508 13.3373C74.5642 13.0534 74.5405 12.754 74.5812 12.4599C74.5418 12.1651 74.5662 11.8653 74.6527 11.5807C74.7393 11.2961 74.8859 11.0334 75.0827 10.8104C75.2796 10.5874 75.522 10.4093 75.7936 10.2881C76.0653 10.1669 76.3598 10.1055 76.6572 10.1079C77.9102 10.1079 78.6672 10.9639 78.6672 12.3779V12.6879H75.4872V12.7379C75.4733 12.9033 75.494 13.0697 75.5482 13.2265C75.6023 13.3833 75.6887 13.5271 75.8017 13.6485C75.9147 13.77 76.0518 13.8665 76.2043 13.9318C76.3568 13.9972 76.5213 14.0299 76.6872 14.0279C76.8996 14.0531 77.1146 14.0146 77.3051 13.9174C77.4956 13.8202 77.653 13.6687 77.7572 13.4819H78.6132ZM75.4872 12.0309H77.7602C77.7716 11.8799 77.7512 11.7281 77.7003 11.5854C77.6495 11.4427 77.5694 11.3122 77.4652 11.2023C77.3609 11.0924 77.2348 11.0055 77.095 10.9472C76.9551 10.8889 76.8047 10.8606 76.6532 10.8639C76.4994 10.8618 76.3467 10.8905 76.2042 10.9484C76.0617 11.0063 75.9323 11.0922 75.8236 11.201C75.7148 11.3098 75.6291 11.4393 75.5713 11.5819C75.5135 11.7244 75.4849 11.8771 75.4872 12.0309ZM82.3802 10.1949H84.4102C85.2922 10.1949 85.8082 10.6409 85.8082 11.3399C85.8091 11.5614 85.7342 11.7765 85.596 11.9495C85.4577 12.1225 85.2644 12.243 85.0482 12.2909V12.3609C85.3108 12.3783 85.5568 12.4955 85.7357 12.6886C85.9146 12.8816 86.0128 13.1358 86.0102 13.3989C86.0102 14.1849 85.4202 14.6979 84.4312 14.6979H82.3812L82.3802 10.1949ZM83.2612 10.8769V12.0429H84.1422C84.6792 12.0429 84.9362 11.8359 84.9362 11.4559C84.9362 11.1049 84.7122 10.8759 84.2412 10.8759L83.2612 10.8769ZM83.2612 12.6969V14.0159H84.3152C84.8402 14.0159 85.1222 13.7839 85.1222 13.3579C85.1222 12.9079 84.8032 12.6959 84.2042 12.6959L83.2612 12.6969Z" fill="white"/>
</g>
</svg>
