<svg width="120" height="43" viewBox="0 0 120 43" fill="none" xmlns="http://www.w3.org/2000/svg">
<g clip-path="url(#clip0_59_206)">
<path d="M114.375 -2.38867H5.625C2.77728 -2.38867 0.46875 0.0737619 0.46875 3.11133V31.1113C0.46875 34.1489 2.77728 36.6113 5.625 36.6113H114.375C117.223 36.6113 119.531 34.1489 119.531 31.1113V3.11133C119.531 0.0737619 117.223 -2.38867 114.375 -2.38867Z" fill="black"/>
<path d="M114.375 -2.38867H5.625C2.77728 -2.38867 0.46875 0.0737619 0.46875 3.11133V31.1113C0.46875 34.1489 2.77728 36.6113 5.625 36.6113H114.375C117.223 36.6113 119.531 34.1489 119.531 31.1113V3.11133C119.531 0.0737619 117.223 -2.38867 114.375 -2.38867Z" stroke="#A6A6A6"/>
<path d="M16.0472 6.11133H23.4816C25.7888 6.11133 26.626 6.36633 27.4697 6.84633C28.3135 7.32533 28.9754 8.02833 29.4263 8.92533C29.8772 9.82133 30.1172 10.7103 30.1172 13.1623V21.0603C30.1172 23.5123 29.8772 24.4013 29.4263 25.2973C28.9848 26.1846 28.303 26.9094 27.4697 27.3773C26.626 27.8563 25.7888 28.1113 23.4816 28.1113H16.0472C13.741 28.1113 12.9038 27.8563 12.0601 27.3763C11.2266 26.9088 10.5445 26.1843 10.1026 25.2973C9.65256 24.4013 9.41162 23.5123 9.41162 21.0603V13.1623C9.41162 10.7103 9.65162 9.82133 10.1035 8.92533C10.545 8.0381 11.2268 7.31329 12.0601 6.84533C12.9038 6.36633 13.7401 6.11133 16.0472 6.11133Z" fill="white"/>
<mask id="mask0_59_206" style="mask-type:alpha" maskUnits="userSpaceOnUse" x="9" y="6" width="22" height="23">
<path d="M16.0472 6.11133H23.4816C25.7888 6.11133 26.626 6.36633 27.4697 6.84633C28.3135 7.32533 28.9754 8.02833 29.4263 8.92533C29.8772 9.82133 30.1172 10.7103 30.1172 13.1623V21.0603C30.1172 23.5123 29.8772 24.4013 29.4263 25.2973C28.9848 26.1846 28.303 26.9094 27.4697 27.3773C26.626 27.8563 25.7888 28.1113 23.4816 28.1113H16.0472C13.741 28.1113 12.9038 27.8563 12.0601 27.3763C11.2266 26.9088 10.5445 26.1843 10.1026 25.2973C9.65256 24.4013 9.41162 23.5123 9.41162 21.0603V13.1623C9.41162 10.7103 9.65162 9.82133 10.1035 8.92533C10.545 8.0381 11.2268 7.31329 12.0601 6.84533C12.9038 6.36633 13.7401 6.11133 16.0472 6.11133Z" fill="#FF5C69"/>
</mask>
<g mask="url(#mask0_59_206)">
<path fill-rule="evenodd" clip-rule="evenodd" d="M24.2345 31.0733H8.67385C8.40493 31.0739 8.13855 31.0179 7.88994 30.9085C7.64133 30.7992 7.41536 30.6386 7.22495 30.4361C7.03453 30.2335 6.88341 29.9929 6.78022 29.728C6.67702 29.4632 6.62378 29.1792 6.62354 28.8923V24.4613L12.3376 18.3503L24.2345 31.0733Z" fill="#00E691"/>
<path fill-rule="evenodd" clip-rule="evenodd" d="M27.7715 16.0894L15.6777 3.14941H30.8549C31.9865 3.14941 32.9043 4.12741 32.9043 5.33241V10.5974L27.7715 16.0894Z" fill="#00CCFF"/>
<path fill-rule="evenodd" clip-rule="evenodd" d="M30.8503 31.0495H26.655L21.2466 25.2795L32.9044 12.8425V28.8685C32.9031 29.1105 32.8681 29.3405 32.7994 29.5585C32.6619 29.9934 32.3997 30.3712 32.05 30.6386C31.7003 30.9059 31.2806 31.0503 30.8503 31.0495Z" fill="#8F61FF"/>
<path fill-rule="evenodd" clip-rule="evenodd" d="M6.62354 21.8854V5.32839C6.62479 5.10572 6.65478 4.89306 6.71353 4.69039C6.84359 4.24406 7.10411 3.85381 7.45699 3.57673C7.80987 3.29964 8.2366 3.15024 8.67479 3.15039H13.5245L18.8476 8.83339L6.62354 21.8854Z" fill="#FF5C69"/>
<path d="M19.2349 19.6515V13.3035H20.2942V19.6505L19.2349 19.6515Z" fill="#00E08A"/>
<path fill-rule="evenodd" clip-rule="evenodd" d="M16.291 17.2975L17.0401 16.5015L19.7645 19.3965L22.4888 16.5015L23.2379 17.2975L19.7645 20.9875L16.291 17.2975Z" fill="#0FCFFF"/>
</g>
<path d="M40.8121 9.10335C39.9093 9.10335 39.3421 9.78935 39.3421 11.0074C39.3421 12.2394 39.8896 12.9044 40.7718 12.9044C41.2265 12.9044 41.5565 12.7154 41.8396 12.3794V11.5254H40.693V10.6714H42.6824V12.7434C42.1883 13.4294 41.5433 13.7724 40.7718 13.7724C39.3562 13.7724 38.4468 12.7434 38.4468 11.0074C38.4468 9.27135 39.3749 8.23535 40.8121 8.23535C41.6352 8.23535 42.2746 8.66235 42.643 9.33435L41.9587 9.85235C41.7008 9.39735 41.2537 9.10335 40.8121 9.10335ZM44.4477 11.3574V12.8274H46.918V13.6744H43.5777V8.33335H46.8327V9.18735H44.4468V10.5104H46.6996V11.3574H44.4477ZM49.7315 13.6744H48.8624V9.20135H47.3596V8.33335H51.2268V9.20135H49.7315V13.6744ZM54.6768 8.33335V13.6744H53.8077V8.33335H54.6768ZM57.6899 13.6744H56.8208V9.20135H55.319V8.33335H59.1862V9.20135H57.6899V13.6744ZM63.9533 13.7724C62.5237 13.7724 61.6208 12.7434 61.6208 11.0074C61.6208 9.26435 62.5237 8.23535 63.9533 8.23535C65.383 8.23535 66.2783 9.26435 66.2783 11.0074C66.2783 12.7434 65.383 13.7724 63.9533 13.7724ZM63.9533 12.9044C64.8299 12.9044 65.3896 12.2114 65.3896 11.0074C65.3896 9.80335 64.8299 9.10335 63.9533 9.10335C63.0702 9.10335 62.5171 9.80335 62.5171 11.0074C62.5171 12.2114 63.0702 12.9044 63.9533 12.9044ZM67.9499 13.6744H67.0808V8.33335H67.9105L70.243 11.9874H70.2758V8.33335H71.1449V13.6744H70.348L67.9893 10.0204H67.9499V13.6744ZM40.0977 27.1814H38.6352V16.6394H40.0715L43.5627 22.5474H43.6424L47.1337 16.6394H48.5568V27.1814H47.0943V19.6214H47.0155L44.0905 24.5494H43.1155L40.1765 19.6354H40.0977V27.1814ZM52.2112 17.1574C52.2112 17.7594 51.8418 18.1234 51.2755 18.1234C50.7224 18.1234 50.3793 17.7594 50.3793 17.1574C50.3793 16.5554 50.7224 16.1774 51.2755 16.1774C51.8418 16.1774 52.2112 16.5554 52.2112 17.1574ZM52.0143 19.4814V27.1814H50.5771V19.4814H52.0143ZM64.889 27.1814H63.3074L62.2012 23.9474H58.6293L57.523 27.1814H55.9424L59.6446 16.6394H61.1858L64.889 27.1814ZM60.3693 18.8374L59.1308 22.4494H61.6865L60.449 18.8374H60.3693ZM67.3677 30.1633H65.9315V19.4814H67.3677V20.5314H67.4333C67.934 19.7614 68.7252 19.2854 69.5943 19.2854C71.3737 19.2854 72.6121 20.8814 72.6121 23.2054C72.6121 25.6834 71.3737 27.3774 69.5943 27.3774C68.6727 27.3774 67.9218 26.9294 67.4333 26.1454H67.3677V30.1633ZM67.3152 23.3314C67.3152 24.8714 68.0793 25.9074 69.1733 25.9074C70.333 25.9074 71.1496 24.8714 71.1496 23.3314C71.1496 21.8194 70.3462 20.7554 69.2258 20.7554C68.1055 20.7554 67.3152 21.8194 67.3152 23.3314ZM75.4865 30.1633H74.0502V19.4814H75.4865V20.5314H75.5521C76.0536 19.7614 76.844 19.2854 77.714 19.2854C79.4924 19.2854 80.7308 20.8814 80.7308 23.2054C80.7308 25.6834 79.4933 27.3774 77.714 27.3774C76.7915 27.3774 76.0405 26.9294 75.553 26.1454H75.4874L75.4865 30.1633ZM75.434 23.3314C75.434 24.8714 76.199 25.9074 77.2921 25.9074C78.4518 25.9074 79.2683 24.8714 79.2683 23.3314C79.2683 21.8194 78.4649 20.7554 77.3446 20.7554C76.2252 20.7554 75.434 21.8194 75.434 23.3314ZM86.473 27.1814H85.0105V16.6394H86.4468L89.938 22.5474H90.0177L93.509 16.6394H94.9321V27.1814H93.4696V19.6214H93.3908L90.4658 24.5494H89.4908L86.5518 19.6354H86.473V27.1814ZM98.744 27.3774C97.3743 27.3774 96.4649 26.5514 96.4649 25.2074C96.4649 23.5414 97.7558 22.6594 100.01 22.6594H100.932V22.1694C100.932 21.2174 100.352 20.6294 99.4555 20.6294C98.8105 20.6294 98.2433 20.9794 97.769 21.4554L96.8737 20.5594C97.558 19.7754 98.4543 19.2854 99.5746 19.2854C101.287 19.2854 102.367 20.3774 102.367 22.0574V27.1814H100.932V26.1594H100.852C100.484 26.9154 99.6271 27.3774 98.744 27.3774ZM99.0871 26.0474C99.8643 26.0474 100.932 25.5434 100.932 24.3534V23.9894H100.234C98.6783 23.9894 97.9405 24.3394 97.9405 25.1094C97.9405 25.6694 98.3755 26.0474 99.0871 26.0474ZM104.064 25.7394V16.6394H105.501V25.2914C105.501 25.6554 105.672 25.8374 106.014 25.8374H106.371V27.2794H105.633C104.591 27.2794 104.064 26.7474 104.064 25.7394ZM107.539 25.7394V16.6394H108.975V25.2914C108.975 25.6554 109.146 25.8374 109.489 25.8374H109.844V27.2794H109.106C108.066 27.2794 107.539 26.7474 107.539 25.7394Z" fill="white"/>
</g>
<defs>
<clipPath id="clip0_59_206">
<rect width="120" height="42.2222" fill="white"/>
</clipPath>
</defs>
</svg>
