<svg width="120" height="43" viewBox="0 0 120 43" fill="none" xmlns="http://www.w3.org/2000/svg">
<g clip-path="url(#clip0_59_191)">
<path d="M111.522 -5.77783H6.73538C6.13592 -5.75103 5.53628 -5.72443 4.96053 -5.59083C4.36107 -5.48403 3.80939 -5.27043 3.28179 -4.97683C2.75418 -4.68303 2.27454 -4.28243 1.84287 -3.80183C1.41101 -3.32123 1.07526 -2.78723 0.787478 -2.19983C0.499694 -1.58563 0.33173 -0.971432 0.235981 -0.330632C0.139873 0.336968 0.0919094 0.977768 0.0680172 1.64537C0.0680172 1.93917 0.0680172 2.25937 0.0439453 2.55337V25.891C0.0439453 26.1848 0.0439453 26.5052 0.0680172 26.799C0.0919094 27.4666 0.115981 28.134 0.235802 28.775C0.33173 29.4424 0.523586 30.0566 0.787299 30.644C1.05137 31.2316 1.41101 31.7656 1.84287 32.2462C2.27454 32.7268 2.75418 33.1008 3.28179 33.4212C3.83329 33.7416 4.38514 33.9284 4.96071 34.0352C5.56035 34.142 6.15999 34.1954 6.73556 34.2222H113.297C113.896 34.1954 114.496 34.1688 115.071 34.0352C115.671 33.9284 116.223 33.7148 116.774 33.4212C117.302 33.1274 117.782 32.7268 118.213 32.2462C118.645 31.7922 118.981 31.2316 119.269 30.644C119.533 30.0566 119.725 29.4158 119.82 28.775C119.94 28.1074 119.964 27.4666 119.988 26.799V1.67197C119.964 1.00457 119.94 0.336968 119.82 -0.304032C119.725 -0.971432 119.533 -1.58563 119.269 -2.17303C119.005 -2.76043 118.645 -3.29443 118.213 -3.77503C117.806 -4.25583 117.302 -4.62963 116.774 -4.95003C116.223 -5.24383 115.671 -5.45743 115.071 -5.56403C114.496 -5.67103 113.896 -5.72443 113.297 -5.75103H112.481C112.17 -5.77783 111.858 -5.77783 111.522 -5.77783Z" fill="#B6B6B6"/>
<path d="M7.57506 33.4208H6.78357C6.27985 33.3942 5.70428 33.3674 5.12854 33.2606C4.61994 33.1637 4.12696 32.9838 3.66554 32.7266C3.20997 32.4596 2.77812 32.139 2.41848 31.7118C2.05866 31.3114 1.7468 30.8574 1.50698 30.3234C1.26716 29.816 1.12327 29.282 1.02734 28.6946C0.907339 28.027 0.883447 27.3594 0.883447 26.852C0.883447 26.6384 0.859375 25.9442 0.859375 25.9442V2.57963C0.859375 2.57963 0.859375 1.88563 0.883447 1.69863C0.883447 1.19123 0.931411 0.497027 1.02734 -0.143973C1.12327 -0.757973 1.29123 -1.29197 1.50698 -1.79937C1.7468 -2.30677 2.03458 -2.78737 2.41848 -3.18797C2.77812 -3.58857 3.20997 -3.93557 3.66554 -4.20257C4.12111 -4.46957 4.60093 -4.62997 5.12854 -4.73657C5.72818 -4.84357 6.32782 -4.89697 6.78357 -4.89697H113.321C113.776 -4.89697 114.376 -4.84357 114.976 -4.73677C115.503 -4.62997 115.983 -4.44297 116.463 -4.20277C116.918 -3.93557 117.326 -3.61517 117.71 -3.18797C118.07 -2.78737 118.381 -2.33357 118.621 -1.79937C118.861 -1.29217 119.005 -0.758173 119.101 -0.170573C119.197 0.443428 119.245 1.08443 119.245 1.69863V26.8254C119.221 27.4128 119.197 28.0536 119.101 28.6678C119.005 29.282 118.861 29.816 118.621 30.3234C118.381 30.8306 118.07 31.3114 117.71 31.6852C117.35 32.0856 116.918 32.4328 116.463 32.6998C116.007 32.9668 115.527 33.127 114.976 33.2338C114.4 33.3408 113.824 33.3674 113.321 33.3942H111.57L7.57506 33.4208Z" fill="black"/>
<path d="M44.5826 21.2718H40.3614L39.3301 24.3958H37.4832L41.6084 12.6736H43.3594L47.5806 24.3958H45.6378L44.5826 21.2718ZM40.889 19.6696H44.0309L42.9037 16.305C42.7598 15.8512 42.5918 15.317 42.4479 14.7564L42.0162 16.2784L40.889 19.6696ZM48.3241 17.8004C48.3241 17.1596 48.3001 16.4386 48.2762 15.6642H49.9549C50.0269 16.038 50.0508 16.3852 50.0749 16.759C50.7705 15.9046 51.562 15.4772 52.4733 15.4772C53.0009 15.4772 53.4805 15.6108 53.9363 15.9046C54.392 16.1984 54.7519 16.6522 55.0156 17.293C55.2795 17.9338 55.4234 18.735 55.4234 19.6962C55.4234 20.711 55.2554 21.5922 54.9437 22.313C54.6319 23.034 54.2002 23.5948 53.6246 23.942C53.073 24.3157 52.4254 24.5026 51.6818 24.5026C51.1542 24.5026 50.6266 24.3958 50.0988 24.209V27.8672L48.3001 28.0274V17.8004H48.3241ZM53.0489 22.2596C53.4087 21.7256 53.6005 20.9246 53.6005 19.8564C53.6005 18.8684 53.4566 18.1742 53.1448 17.747C52.8329 17.3198 52.4492 17.0794 51.9457 17.0794C51.5859 17.0794 51.274 17.1596 50.9862 17.3464C50.674 17.5469 50.3909 17.799 50.1468 18.0942V22.767C50.3147 22.8738 50.5307 22.954 50.7705 23.0074C51.0103 23.0608 51.2501 23.0874 51.466 23.0874C52.1375 23.0874 52.6651 22.8204 53.0489 22.2596ZM56.5026 17.8004C56.5026 17.1596 56.4787 16.4386 56.4547 15.6642H58.1336C58.2054 16.038 58.2295 16.3852 58.2534 16.759C58.949 15.9046 59.7405 15.4772 60.6518 15.4772C61.1796 15.4772 61.6592 15.6108 62.115 15.9046C62.5707 16.1984 62.9304 16.6522 63.1943 17.293C63.458 17.9338 63.6019 18.735 63.6019 19.6962C63.6019 20.711 63.4341 21.5922 63.1222 22.313C62.8105 23.034 62.3787 23.5948 61.8031 23.942C61.2514 24.3157 60.6038 24.5026 59.8605 24.5026C59.3327 24.5026 58.8051 24.3958 58.2775 24.209V27.8672L56.4787 28.0274V17.8004H56.5026ZM61.2275 22.2596C61.5872 21.7256 61.7792 20.9246 61.7792 19.8564C61.7792 18.8684 61.6353 18.1742 61.3235 17.747C61.0116 17.3198 60.6279 17.0794 60.1242 17.0794C59.7646 17.0794 59.4527 17.1596 59.1649 17.3464C58.8527 17.5469 58.5696 17.799 58.3255 18.0942V22.767C58.4934 22.8738 58.7092 22.954 58.949 23.0074C59.1888 23.0608 59.4286 23.0874 59.6446 23.0874C60.316 23.0874 60.8677 22.8204 61.2275 22.2596ZM66.8877 23.8352C66.1202 23.3546 65.5206 22.687 65.113 21.7792C64.7052 20.898 64.4893 19.8298 64.4893 18.6282C64.4893 17.3198 64.7291 16.1984 65.2089 15.2906C65.6886 14.3826 66.3362 13.6884 67.1756 13.2346C67.991 12.7806 68.9264 12.5402 69.9577 12.5402C70.5574 12.5402 71.1329 12.6202 71.6846 12.7538C72.2361 12.914 72.7398 13.101 73.2195 13.3678L72.7639 14.9166C71.8044 14.4094 70.8931 14.169 70.0296 14.169C69.3101 14.169 68.6625 14.356 68.111 14.703C67.5593 15.0502 67.1277 15.5576 66.8397 16.225C66.528 16.8926 66.3841 17.7204 66.3841 18.655C66.3841 19.4828 66.504 20.2304 66.7438 20.8712C66.9838 21.5122 67.3434 22.0194 67.8471 22.42C68.3508 22.7938 68.9983 22.9808 69.7659 22.9808C70.1255 22.9808 70.4614 22.954 70.8211 22.874C71.1809 22.7938 71.4928 22.7138 71.8044 22.5802V20.2038H69.3822V18.655H73.5554V23.595C72.9518 23.9184 72.3157 24.1604 71.6605 24.3158C70.989 24.476 70.3414 24.5562 69.6938 24.5562C68.5907 24.5562 67.6792 24.3158 66.8877 23.8352ZM79.8631 24.3958C79.7911 24.0486 79.7672 23.6748 79.7431 23.2476C79.4553 23.6214 79.1196 23.9152 78.6638 24.1822C78.2322 24.4492 77.7284 24.556 77.1529 24.556C76.6971 24.556 76.2895 24.4492 75.9297 24.2622C75.5699 24.0754 75.2582 23.7816 75.0423 23.381C74.8263 22.9804 74.7065 22.4998 74.7065 21.9392C74.7065 21.0846 74.9704 20.4172 75.5219 19.9098C76.0736 19.4024 76.9849 19.1622 78.2562 19.1622C78.7359 19.1622 79.2155 19.1888 79.6713 19.269V19.1088C79.6713 18.3344 79.5274 17.8002 79.2396 17.4798C78.9516 17.1594 78.5199 16.9992 77.9683 16.9992C77.5548 16.9993 77.1433 17.0622 76.7451 17.1862C76.3134 17.3196 75.9297 17.4532 75.594 17.64L75.3062 16.1982C75.6178 16.038 76.0497 15.8778 76.5773 15.7442C77.1049 15.6106 77.6566 15.5306 78.2322 15.5306C78.9037 15.5306 79.4794 15.6374 79.959 15.8778C80.4387 16.1182 80.7985 16.4918 81.0622 17.0526C81.3261 17.6134 81.47 18.361 81.47 19.2956V22.767C81.47 23.1408 81.4941 23.6748 81.518 24.3958H79.8631ZM78.8077 22.767C79.1916 22.58 79.4794 22.313 79.7192 22.0192V20.3904C79.2396 20.337 78.8318 20.3104 78.5199 20.3104C77.7764 20.3104 77.2729 20.4438 76.9851 20.7108C76.6973 20.9778 76.5532 21.325 76.5532 21.779C76.5532 22.2062 76.6492 22.5266 76.8651 22.7402C77.081 22.9538 77.3447 23.0606 77.7045 23.0606C78.0644 23.0874 78.424 22.9806 78.8077 22.767ZM82.885 22.3132V12.006L84.6599 11.846V21.966C84.6599 22.3398 84.7078 22.6068 84.8278 22.767C84.9477 22.9272 85.1156 23.0074 85.3795 23.0074C85.4993 23.0074 85.6432 22.9806 85.8592 22.9272L86.0749 24.3692C85.9071 24.4494 85.6912 24.5028 85.4514 24.5562C85.2116 24.6096 84.9717 24.6362 84.7558 24.6362C83.5087 24.5562 82.885 23.8084 82.885 22.3132ZM87.3462 22.3132V12.006L89.1209 11.846V21.966C89.1209 22.3398 89.1689 22.6068 89.2889 22.767C89.4087 22.9272 89.5766 23.0074 89.8405 23.0074C89.9604 23.0074 90.1042 22.9806 90.3202 22.9272L90.5361 24.3692C90.3681 24.4494 90.1522 24.5028 89.9124 24.5562C89.6726 24.6096 89.4328 24.6362 89.2168 24.6362C87.9698 24.5562 87.3462 23.8084 87.3462 22.3132ZM97.8752 20.2836H92.7426C92.8145 22.0994 93.606 23.034 95.0931 23.034C95.4527 23.034 95.8366 22.9806 96.2203 22.8738C96.5958 22.7686 96.9644 22.6347 97.3235 22.4732L97.7072 23.835C96.8199 24.3156 95.8366 24.556 94.7573 24.556C93.9178 24.556 93.2223 24.3692 92.6467 24.022C92.071 23.6749 91.6393 23.1676 91.3515 22.5C91.0637 21.8324 90.9198 21.058 90.9198 20.1234C90.9198 19.1622 91.0637 18.3344 91.3754 17.6402C91.6872 16.946 92.095 16.4118 92.6467 16.038C93.1984 15.6642 93.8219 15.4772 94.5414 15.4772C95.2849 15.4772 95.9084 15.6642 96.3881 16.0648C96.8918 16.4386 97.2516 16.9726 97.4914 17.6134C97.7313 18.2542 97.8511 18.9752 97.8511 19.7496V20.2836H97.8752ZM96.1244 19.0286C96.1003 18.3344 95.9325 17.8004 95.6447 17.4532C95.3568 17.1062 94.9971 16.9192 94.5173 16.9192C94.0617 16.9192 93.678 17.1062 93.3901 17.4532C93.0784 17.8004 92.8865 18.3344 92.7906 19.002H96.1244V19.0286ZM99.2183 17.8536C99.2183 17.373 99.1942 16.652 99.1704 15.6642H100.849C100.873 15.9044 100.897 16.1981 100.921 16.5452C100.945 16.8924 100.969 17.1594 100.969 17.373C101.185 16.9992 101.377 16.6788 101.593 16.4118C101.784 16.1448 102.024 15.9312 102.288 15.771C102.552 15.6108 102.864 15.5306 103.2 15.5306C103.487 15.5306 103.703 15.5574 103.919 15.6374L103.703 17.373C103.535 17.3196 103.343 17.293 103.128 17.293C102.696 17.293 102.336 17.3998 102.024 17.64C101.713 17.8804 101.377 18.281 101.017 18.815V24.4224H99.2422V17.8536H99.2183ZM104.926 27.974C104.663 27.9206 104.447 27.8672 104.279 27.787L104.615 26.3452C104.735 26.3718 104.878 26.4252 105.07 26.452C105.262 26.4786 105.43 26.5054 105.598 26.5054C106.39 26.5054 106.989 25.9446 107.373 24.7964L107.493 24.476L104.615 15.6908H106.533L107.996 20.6042C108.236 21.4318 108.38 22.0994 108.452 22.5266C108.596 21.8858 108.74 21.2716 108.932 20.6308L110.395 15.6642H112.194L109.316 24.5026C109.052 25.3304 108.74 26.0246 108.428 26.532C108.141 27.0008 107.764 27.3929 107.325 27.6802C106.893 27.9206 106.389 28.054 105.766 28.054C105.478 28.054 105.19 28.0274 104.926 27.974ZM38.3467 7.27978C37.9389 7.03938 37.6511 6.66578 37.4352 6.21178C37.2193 5.75778 37.1235 5.22378 37.1235 4.60958C37.1235 3.96858 37.2434 3.40798 37.4593 2.92738C37.6681 2.45952 38.0036 2.07654 38.4186 1.83258C38.8504 1.56538 39.3301 1.43198 39.9056 1.43198C40.4573 1.43198 40.9131 1.56538 41.3207 1.80578C41.7044 2.04618 42.0162 2.41978 42.2322 2.87378C42.4481 3.32778 42.5438 3.86178 42.5438 4.44938C42.5438 5.09018 42.424 5.65098 42.2081 6.13138C41.9993 6.59931 41.6638 6.98236 41.2488 7.22638C40.841 7.49338 40.3373 7.62678 39.7858 7.62678C39.2341 7.65358 38.7545 7.51998 38.3467 7.27978ZM40.7931 6.53198C41.0569 6.34518 41.2488 6.07798 41.3927 5.73098C41.5207 5.35575 41.5857 4.95755 41.5846 4.55618C41.5846 4.12898 41.5366 3.72818 41.4166 3.40798C41.2968 3.06078 41.1288 2.79378 40.8651 2.60678C40.6012 2.39318 40.2893 2.31318 39.8817 2.31318C39.4978 2.31318 39.1862 2.41998 38.9223 2.60678C38.6586 2.82038 38.4665 3.08758 38.3226 3.43478C38.1787 3.78198 38.1308 4.15558 38.1308 4.58278C38.1308 5.00998 38.2028 5.41058 38.3226 5.75778C38.4426 6.10478 38.6345 6.37178 38.8984 6.58558C39.1621 6.79918 39.474 6.87918 39.8577 6.87918C40.1934 6.82578 40.5292 6.74578 40.7931 6.53198ZM44.4387 2.39318H42.7598L42.8316 1.51198H47.0769L46.981 2.39318H45.3741V7.57338H44.4387V2.39318ZM52.1135 7.57358H51.0583L49.4514 4.90318H48.8038V7.57338H47.8684V1.53878H48.8038V4.02218H49.2834L50.4107 2.20618C50.5786 1.93938 50.7464 1.75238 50.9144 1.61878C51.0823 1.48518 51.2981 1.43198 51.5379 1.43198C51.7538 1.43198 51.9457 1.45858 52.0896 1.53878L51.8977 2.33978C51.8088 2.28837 51.7102 2.26097 51.6099 2.25978C51.4899 2.25978 51.394 2.28645 51.3222 2.33978C51.2501 2.39318 51.1542 2.49998 51.0822 2.63358L50.0988 4.20898L52.1135 7.57358ZM52.8331 1.53878H54.2961C54.9917 1.53878 55.5193 1.69898 55.8791 2.01938C56.2387 2.33978 56.4306 2.79378 56.4306 3.38138C56.4306 3.78178 56.3587 4.12898 56.1908 4.42258C56.0228 4.71618 55.8071 4.95658 55.4952 5.11698C55.2074 5.27698 54.8717 5.35705 54.488 5.35718C54.272 5.35718 54.0322 5.33051 53.7685 5.27718V7.57358H52.8331V1.53878ZM55.1835 4.23578C55.3754 4.02218 55.4713 3.75498 55.4713 3.38118C55.4713 3.00738 55.3754 2.74038 55.1595 2.58018C54.9676 2.41998 54.6559 2.33978 54.272 2.33978H53.7685V4.47598C54.0083 4.52938 54.1761 4.52938 54.2961 4.52938C54.6798 4.52938 54.9917 4.42258 55.1835 4.23578ZM58.2295 7.27978C57.8217 7.03938 57.534 6.66578 57.318 6.21178C57.1021 5.75778 57.0063 5.22378 57.0063 4.60958C57.0063 3.96858 57.1262 3.40798 57.3421 2.92738C57.5508 2.45944 57.8864 2.07643 58.3014 1.83258C58.7331 1.56538 59.2129 1.43198 59.7884 1.43198C60.3401 1.43198 60.7957 1.56538 61.2035 1.80578C61.5872 2.04618 61.899 2.41978 62.1148 2.87378C62.3305 3.32778 62.4266 3.86178 62.4266 4.44938C62.4266 5.09018 62.3068 5.65098 62.0909 6.13138C61.8821 6.59934 61.5465 6.98239 61.1314 7.22638C60.7238 7.49338 60.2201 7.62678 59.6684 7.62678C59.0929 7.65358 58.6132 7.51998 58.2295 7.27978ZM60.6518 6.53198C60.9157 6.34518 61.1075 6.07798 61.2514 5.73098C61.3794 5.35575 61.4444 4.95755 61.4433 4.55618C61.4433 4.12898 61.3953 3.72818 61.2755 3.40798C61.1555 3.06078 60.9875 2.79378 60.7238 2.60678C60.4599 2.39318 60.1483 2.31318 59.7405 2.31318C59.3568 2.31318 59.0449 2.41998 58.781 2.60678C58.5173 2.82038 58.3255 3.08758 58.1816 3.43478C58.0377 3.78198 57.9895 4.15558 57.9895 4.58278C57.9895 5.00998 58.0616 5.41058 58.1816 5.75778C58.3016 6.10498 58.4932 6.37178 58.7571 6.58558C59.021 6.79918 59.3327 6.87918 59.7164 6.87918C60.0762 6.82578 60.3881 6.74578 60.6518 6.53198ZM67.1756 7.57358V4.26238C67.1756 3.83518 67.1995 3.35458 67.2236 2.82038L64.4893 7.57378H63.458V1.53878H64.3215V4.98338C64.3215 5.35738 64.3215 5.75778 64.2974 6.21178L66.9836 1.53878H68.0629V7.57358H67.1756ZM65.065 1.00478C64.873 0.897979 64.7052 0.737779 64.6093 0.550779C64.5134 0.363979 64.4413 0.176979 64.4174 -0.0366211H65.0889C65.161 0.417379 65.4008 0.630979 65.7845 0.630979C66.1682 0.630979 66.408 0.417379 66.504 -0.0366211H67.1756C67.1516 0.176979 67.0797 0.363979 66.9836 0.550779C66.8877 0.737779 66.7199 0.871379 66.528 1.00478C66.3362 1.13838 66.0723 1.19178 65.7845 1.19178C65.5206 1.19178 65.2569 1.11178 65.065 1.00478ZM70.5333 2.39318H68.8544L68.9264 1.51198H73.1476L73.0517 2.39318H71.4448V7.57338H70.5094V2.39338L70.5333 2.39318ZM73.9391 1.53878H77.129L77.0331 2.39318H74.8745V4.04878H76.9131V4.84978H74.8745V6.69238H77.1529L77.081 7.54678H73.9391V1.53878ZM83.7006 4.58278C83.8925 4.71638 84.0363 4.87658 84.1563 5.11678C84.2762 5.33058 84.3241 5.59758 84.3241 5.86458C84.3241 6.21178 84.2522 6.50551 84.1084 6.74578C83.9645 7.01278 83.7245 7.19978 83.4367 7.33318C83.1489 7.46678 82.7891 7.54678 82.3815 7.54678H80.6066V1.53878H82.3095C82.8852 1.53878 83.3169 1.67238 83.6047 1.91278C83.8925 2.15278 84.0364 2.49998 84.0364 2.92738C84.0364 3.27438 83.9404 3.59478 83.7725 3.83518C83.5806 4.07558 83.3408 4.23578 83.053 4.34258C83.2929 4.36925 83.5087 4.44931 83.7006 4.58278ZM81.542 3.99538H82.1176C82.2926 3.99552 82.4652 3.94975 82.6213 3.86178C82.7598 3.78277 82.876 3.66268 82.9571 3.51478C83.0361 3.36994 83.0776 3.20362 83.0771 3.03418C83.0771 2.79378 83.005 2.60698 82.8371 2.47338C82.6693 2.33978 82.4534 2.28638 82.1417 2.28638H81.518V3.99538H81.542ZM83.101 6.53218C83.2928 6.34518 83.3887 6.10498 83.3887 5.78438C83.3887 5.43738 83.2928 5.19698 83.0771 5.00998C82.8611 4.82318 82.5734 4.74298 82.1656 4.74298H81.542V6.77238H82.2376C82.6213 6.79905 82.9091 6.71898 83.101 6.53218Z" fill="white"/>
<path fill-rule="evenodd" clip-rule="evenodd" d="M24.2918 1.56543H14.3384C9.63757 1.56543 7.93457 3.48803 7.93457 8.69483V19.7764C7.93457 25.01 9.66146 26.9058 14.3384 26.9058H24.2918C28.9926 26.9058 30.6956 24.9832 30.6956 19.7764V8.69483C30.7195 3.48803 28.9926 1.56543 24.2918 1.56543Z" fill="#C8102E"/>
<path d="M12.4436 14.2485H13.0432V17.5595H12.4438V16.2245H11.0767V17.5595H10.4771V14.2485H11.0765V15.5835H12.4436V14.2485ZM15.8496 16.1443C15.8496 16.6783 15.6096 16.9721 15.1777 16.9721C14.7462 16.9721 14.5064 16.6783 14.5064 16.1177V14.2485H13.9068V16.1443C13.9068 17.0789 14.3623 17.6129 15.1779 17.6129C15.9935 17.6129 16.4731 17.0789 16.4731 16.1177V14.2485H15.8735V16.1443H15.8496ZM22.8288 16.5181L22.1573 14.2485H21.6536L20.9821 16.5181L20.3345 14.2485H19.6869L20.7182 17.5595H21.2219L21.8934 15.3699L22.5649 17.5595H23.0686L24.0999 14.2485H23.4764L22.8288 16.5181ZM25.2033 16.1443H26.3065V15.5301H25.2033V14.8627H26.8102V14.2485H24.6275V17.5595H26.882V16.9453H25.2272V16.1443H25.2033ZM27.5776 17.5595H28.1772V14.2485H27.5776V17.5595ZM17.6483 16.8653L17.3842 17.5595H16.7609L18.0559 14.2485H18.5837L19.8787 17.5595H19.2552L18.9913 16.8653H17.6483ZM17.8641 16.2779H18.7756L18.3198 15.1029L17.8641 16.2779ZM19.327 10.0295C17.2405 10.0295 15.5377 8.13355 15.5377 5.81055H16.0653C16.0653 7.81335 17.5283 9.44215 19.327 9.44215C21.1258 9.44215 22.589 7.81335 22.589 5.81055H23.1166C23.1166 8.13375 21.4138 10.0295 19.327 10.0295Z" fill="white"/>
</g>
<defs>
<clipPath id="clip0_59_191">
<rect width="120" height="42.2222" fill="white"/>
</clipPath>
</defs>
</svg>
