<svg width="40" height="40" viewBox="0 0 40 40" fill="none" xmlns="http://www.w3.org/2000/svg">
<circle cx="20" cy="20" r="20" fill="#707070" fill-opacity="0.7"/>
<g clip-path="url(#clip0_63_260)">
<path d="M18.5236 26.131C16.1979 25.8885 14.1009 25.3157 12.3056 23.9115C12.0828 23.7368 11.8528 23.5684 11.6495 23.3733C10.8637 22.6186 10.7845 21.7542 11.4063 20.8635C11.9383 20.1013 12.8312 19.8973 13.7594 20.335C13.9391 20.4198 14.1103 20.5257 14.2744 20.6395C17.6203 22.9385 22.2167 23.0019 25.5751 20.7428C25.9079 20.4877 26.2635 20.2797 26.6758 20.1735C27.4773 19.9677 28.2248 20.2621 28.6549 20.9634C29.1463 21.7643 29.14 22.546 28.5346 23.1678C27.6058 24.1211 26.4888 24.8108 25.2477 25.2921C24.0742 25.7471 22.7888 25.9761 21.5166 26.1282C21.7086 26.3372 21.7991 26.4399 21.9191 26.5605C23.6466 28.2962 25.3816 30.0246 27.1034 31.7656C27.69 32.3588 27.8125 33.0943 27.4895 33.7843C27.1364 34.5384 26.3459 35.0345 25.5707 34.9814C25.0796 34.9475 24.6966 34.703 24.3564 34.3602C23.0527 33.0484 21.7246 31.7608 20.4474 30.4242C20.0757 30.0356 19.8969 30.1091 19.5689 30.4466C18.2574 31.7967 16.9246 33.126 15.5839 34.4479C14.9819 35.0414 14.2656 35.1482 13.5674 34.8092C12.8253 34.4494 12.353 33.6919 12.3895 32.9306C12.4146 32.4156 12.6679 32.0223 13.0213 31.6694C14.7309 29.9624 16.4357 28.2509 18.1412 26.5411C18.254 26.4273 18.3592 26.3067 18.5236 26.131Z" fill="black"/>
<path d="M19.9402 20.1849C15.7912 20.1708 12.389 16.7313 12.4132 12.5757C12.4371 8.37421 15.8414 4.9884 20.0313 5.00003C24.2296 5.01134 27.5994 8.44585 27.5783 12.691C27.557 16.8381 24.1313 20.1994 19.9402 20.1849ZM23.7109 12.5857C23.7036 10.5224 22.0604 8.87975 20.0011 8.87787C17.9246 8.87567 16.2665 10.5481 16.2826 12.6303C16.298 14.6858 17.9554 16.3168 20.0203 16.3093C22.0789 16.3021 23.7178 14.6488 23.7109 12.5857Z" fill="black"/>
</g>
<defs>
<clipPath id="clip0_63_260">
<rect width="30" height="30" fill="white" transform="translate(5 5)"/>
</clipPath>
</defs>
</svg>
